/* XPM */
static char *ghost_left_21713339732[] = {
/* columns rows colors chars-per-pixel */
"32 32 83 1 ",
"  c None",
". c black",
"X c gray17",
"o c #2F2F2F",
"O c #373737",
"+ c #006083",
"@ c #0D6182",
"# c #0E6385",
"$ c #1B9ACB",
"% c #09A1D6",
"& c #1EA6DB",
"* c #00ACE6",
"= c #00ADE6",
"- c #05ADE6",
"; c #07ADE6",
": c #0AADE6",
"> c #0BADE6",
", c #0DADE6",
"< c #0EADE6",
"1 c #13ADE6",
"2 c #14ADE6",
"3 c #16ADE6",
"4 c #15AEE6",
"5 c #1FABE2",
"6 c #1BAEE6",
"7 c #1CAEE6",
"8 c #1DAEE6",
"9 c #1EAEE6",
"0 c #20AEE6",
"q c #20AFE7",
"w c #3DB1E6",
"e c #5CAAD5",
"r c #45B2E5",
"t c #4BB2E5",
"y c #5BB5E5",
"u c #5DB5E5",
"i c #5EB6E5",
"p c #61B6E5",
"a c #64B7E5",
"s c #73BAE4",
"d c #79BBE4",
"f c #7DBCE4",
"g c gray75",
"h c #A4BBCC",
"j c #80BDE4",
"k c #83BEE4",
"l c #84BEE4",
"z c #85BEE4",
"x c #8FC1E3",
"c c #90C2E3",
"v c #9BC5E3",
"b c #9DC5E2",
"n c #B0CCE1",
"m c #BCD0E1",
"M c #C0C0C0",
"N c #C1C1C1",
"B c gray80",
"V c gray81",
"C c #D1D0CF",
"Z c #C9CDD0",
"A c #CDD7DF",
"S c #CED7DF",
"D c #D0D0D0",
"F c #D0D8DF",
"G c #D1D9DF",
"H c #D2D9DF",
"J c #D3D9DF",
"K c gray85",
"L c gray86",
"P c #D8DBDF",
"I c #D8DCDE",
"U c #D9DCDE",
"Y c #DADCDE",
"T c #DDDEDE",
"R c gray87",
"E c #DFDEDE",
"W c #DFDFDE",
"Q c #DFDFDF",
"! c #E0DFDE",
"~ c #E1DFDE",
"^ c #C1D2E0",
"/ c #C2D3E0",
"( c #C6D4E0",
/* pixels */
"                                ",
"                                ",
"                                ",
"             0000000            ",
"            00000000            ",
"         00000000000000         ",
"         000000000000000        ",
"       <<<40000007<<<7000       ",
"      >JIIm<00000pIIId00000     ",
"      *PTT/*-700<p!T~d*6000     ",
"      AT!TPA/-01nFT!TJ(c000     ",
"      MMgKT!J*04hMMM!TTv000     ",
"      ...BT!J*0q+..o~QQv000     ",
"      ...BTTJ*0q#..O~TTv000     ",
"    0$...B!!J*00@..X!T!b0000    ",
"    05%ZVL(uy700&eDD!cpr0000    ",
"    00>IWT/<00000a!!!f000000    ",
"    076kkks700000wlllt000000    ",
"    000000000000000000000000    ",
"    000000000000000000000000    ",
"    000000000000000000000000    ",
"    000000000000000000000000    ",
"    000000000000000000000000    ",
"    000000000000000000000000    ",
"    000 0000000  0000000 000    ",
"    00   00000    00000   00    ",
"    0      000    000      0    ",
"    0      000    000      0    ",
"                                ",
"                                ",
"                                ",
"                                "
};
