/* XPM */
static char *ghost_up_21713339732[] = {
/* columns rows colors chars-per-pixel */
"32 32 67 1 ",
"  c None",
". c black",
"X c #232323",
"o c #064259",
"O c #1D4559",
"+ c #515150",
"@ c #555555",
"# c #606060",
"$ c #00ACE6",
"% c #00ADE6",
"& c #01ADE6",
"* c #02ADE6",
"= c #04ADE6",
"- c #09ADE6",
"; c #0BADE6",
": c #0DADE6",
"> c #0FADE6",
", c #1FAAE0",
"< c #18AEE6",
"1 c #19AEE6",
"2 c #1AAEE6",
"3 c #1DAEE6",
"4 c #20ADE5",
"5 c #20AEE6",
"6 c #20AEE7",
"7 c #2DAFE6",
"8 c #20B0E8",
"9 c #37B0E6",
"0 c #40B1E6",
"q c #54B0E0",
"w c #57B4E5",
"e c #58B6E7",
"r c #5CB5E5",
"t c #5EB5E5",
"y c #61B6E5",
"u c #62B6E5",
"i c #63B6E5",
"p c #64B7E5",
"a c gray67",
"s c #99C4E3",
"d c gray80",
"f c gray81",
"g c #CBD6DF",
"h c #CCD6DF",
"j c #CED7DF",
"k c gray84",
"l c #D1D8DF",
"z c #D1D9DF",
"x c #D2D9DF",
"c c #D3D9DF",
"v c #D7DBDF",
"b c #DBD9D8",
"n c #D8DBDF",
"m c #D8DCDE",
"M c #D9DCDE",
"N c #DADCDE",
"B c #DBDDDE",
"V c #DDDDDD",
"C c #DCDDDE",
"Z c gray87",
"A c #DFDFDE",
"S c #E0DFDE",
"D c #E2E0DE",
"F c #C9D5E0",
"G c #CBD6E0",
"H c gray88",
"J c #E4E2E0",
/* pixels */
"                                ",
"                                ",
"                                ",
"             5555555            ",
"             5555555            ",
"         ...o555555,...         ",
"         X..Oe7557eq...@        ",
"       ZH#..+Ju55pSb...aZ       ",
"      =MZffdfSu55iSZdddkM*5     ",
"      ;nZZZZZSu35iSZZZZZv;5     ",
"      ;nZZZZZSu55iSZZZZZv=5     ",
"      >glnZZZlr55tzzZZZMG>5     ",
"      5**gSVl*3553*9ZZZs*55     ",
"      55*gnnj*555559ZMMs555     ",
"    55553222255555552<235555    ",
"    555555353555555555355555    ",
"    555555555555555555555555    ",
"    555555555555555555555555    ",
"    555555555555555555555555    ",
"    555555555555555555555555    ",
"    555555555555555555555555    ",
"    555555555555555555555555    ",
"    555555555555555555555555    ",
"    555555555555555555555555    ",
"    555555555555555555555555    ",
"    55   55555    55555   55    ",
"    5      555    555      5    ",
"    5      555    555      5    ",
"                                ",
"                                ",
"                                ",
"                                "
};
