/* XPM */
static char *ghost_right_21713339732[] = {
/* columns rows colors chars-per-pixel */
"32 32 92 1 ",
"  c None",
". c black",
"X c #011C28",
"o c #353535",
"O c #3F3F3F",
"+ c #403B36",
"@ c #006A8F",
"# c #0F698D",
"$ c #106E93",
"% c #336F8E",
"& c #1B99CB",
"* c #2A9CCD",
"= c #1DA1D5",
"- c #00ACE6",
"; c #00ADE6",
": c #00ADE7",
"> c #02ADE6",
", c #09ADE6",
"< c #0AADE6",
"1 c #0BADE6",
"2 c #0DADE6",
"3 c #0EADE6",
"4 c #0FADE6",
"5 c #10ADE6",
"6 c #18AEE6",
"7 c #1AAEE6",
"8 c #1BAEE6",
"9 c #1CAEE6",
"0 c #1EAEE6",
"q c #1FAEE6",
"w c #20AEE6",
"e c #20AEE7",
"r c #20AFE7",
"t c #2CAFE6",
"y c #36B0E6",
"u c #3DB1E6",
"i c #41B1E6",
"p c #4DB3E5",
"a c #4EB3E5",
"s c #4FB3E5",
"d c #57B4E5",
"f c #57B5E6",
"g c #64B7E5",
"h c #66B7E5",
"j c #67B7E5",
"k c #6BB8E5",
"l c #75BBE4",
"z c #77BBE4",
"x c #7ABCE4",
"c c #7FBDE4",
"v c #898887",
"b c #83878A",
"n c gray55",
"m c gray58",
"M c #AEAEAE",
"N c #81BDE4",
"B c #82BEE4",
"V c #85BEE4",
"C c #87BFE4",
"Z c #9BC5E3",
"A c #ACCBE2",
"S c #B3CDE1",
"D c #B9CFE1",
"F c #BCD0E1",
"G c #CDCDCD",
"H c #CECECE",
"J c #CDD7DF",
"K c #CFD8DF",
"L c LightGray",
"P c #D1D9DF",
"I c #D4DADF",
"U c #D5DADF",
"Y c #D7DBDF",
"T c gray87",
"R c #DFDEDE",
"E c #DFDFDE",
"W c #DFDFDF",
"Q c #E0DFDE",
"! c #E1DFDE",
"~ c #E1E0DF",
"^ c #E2E0DE",
"/ c #C5D4E0",
"( c #C6D4E0",
") c #C7D4E0",
"_ c #C8D5E0",
"` c #C9D5E0",
"' c #CAD6E0",
"] c #D4DAE0",
"[ c gray88",
"{ c #E1E0E0",
"} c #E2E1E0",
"| c #E3E1E0",
/* pixels */
"                                ",
"                                ",
"                                ",
"                                ",
"             wwwwwww            ",
"         wwwwwwwwwwwwww         ",
"         wwwwwwwwwwwwww         ",
"       wwwwwwwwwwwwwwwwww       ",
"       wwwsBNNywwwww6lNcc       ",
"      wwwwCQWWdwwwww;JWWI;w     ",
"      ww8gZRRWckuwwthJRRIgk     ",
"      ww;PRRR[||xwwp^RRW|||     ",
"      ww;KTTGoO+*wwpWRWmOOO     ",
"      ww;KRRG...&wwpWRWn...     ",
"    wwww;KRRG...&wwpWR[n..Xw    ",
"    wwww4A/RLv%#=wwiF]RMb@$w    ",
"    wwwwq8CWR|dewwwq;JTIP-ew    ",
"    wwwwqqz//_awwwww4SJJD<ww    ",
"    wwwwqw8<<<qwwwwww5<<4www    ",
"    wwwwwwwqqqwwwwwwwwwwwwww    ",
"    wwwwwwwwwwwwwwwwwwwwwwww    ",
"    wwwwwwwwwwwwwwwwwwwwwwww    ",
"    wwwwwwwwwwwwwwwwwwwwwwww    ",
"    wwwwwwwwwwwwwwwwwwwwwwww    ",
"    wwwwwwwwwwwwwwwwwwwwwwww    ",
"    ww   wwwww    wwwww   ww    ",
"    w      www    www      w    ",
"    w      www    www      w    ",
"                                ",
"                                ",
"                                ",
"                                "
};
