/* XPM */
static char *ghost_down_21713339731[] = {
/* columns rows colors chars-per-pixel */
"32 32 70 1 ",
"  c None",
". c black",
"X c #124359",
"o c #164E67",
"O c #555555",
"+ c #575756",
"@ c gray39",
"# c #646464",
"$ c #147EA7",
"% c #147EA8",
"& c #147FA8",
"* c #1686B2",
"= c #1788B5",
"- c #2D88B1",
"; c #1B9BCE",
": c #00ACE6",
"> c #08ADE6",
", c #09ADE6",
"< c #0BADE6",
"1 c #14ADE6",
"2 c #15ADE6",
"3 c #16ADE6",
"4 c #1FACE3",
"5 c #1FAEE6",
"6 c #20AEE6",
"7 c #21AEE6",
"8 c #20AFE7",
"9 c #26AEE6",
"0 c #27AEE6",
"q c #2CAFE6",
"w c #2EAFE6",
"e c #3BACE0",
"r c #3BB0E6",
"t c #3CB0E6",
"y c #3DB1E6",
"u c #3DB2E8",
"i c #3EB2E8",
"p c #51B3E5",
"a c #52B4E5",
"s c #61B6E5",
"d c #63B6E5",
"f c #63B7E5",
"g c gray67",
"h c #ACACAB",
"j c #9AC5E3",
"k c #B1CCE1",
"l c #B2CDE1",
"z c #B6CEE1",
"x c #B8CFE1",
"c c #B9CFE1",
"v c #CCD6DF",
"b c #D1D8DF",
"n c #D7DBDF",
"m c gray85",
"M c #DAD9D9",
"N c gray86",
"B c #D8DBDF",
"V c #D9DCDE",
"C c #D8DCDF",
"Z c gainsboro",
"A c #DDDDDD",
"S c gray87",
"D c #DFDEDE",
"F c #E0DFDE",
"G c #E1DFDE",
"H c #C9D5E0",
"J c gray88",
"K c #E1E0E0",
"L c #E2E1E0",
"P c #E3E1E0",
/* pixels */
"                                ",
"                                ",
"                                ",
"                                ",
"             6666666            ",
"         66666666666666         ",
"         66666666666666         ",
"       666666666666666666       ",
"       666666666666666686       ",
"      666666656666666665666     ",
"      665qwww5666666wwq9666     ",
"      62:vDDb:56662rDDSj266     ",
"      2lzBNJCxp66accSSSHl16     ",
"      <BDDDJDJf66fDDJNSSn<6     ",
"     6<BDDDNDJa65fJDDDDDn<6     ",
"    66<BDNNNNJf96fDDNNNNn>66    ",
"    68,CK@..OKf66fFm...gB<66    ",
"    68,NK#..+Kf66fFm...hn>66    ",
"    665ruo..Xu9669ye...-r566    ",
"    66665=$**8666666$%$;5666    ",
"    666666666666666666666666    ",
"    666666666666666666666666    ",
"    666666666666666666666666    ",
"    666666666666666666666666    ",
"    666666666666666666666666    ",
"    66  666666    666666  66    ",
"    66   66666    66666   66    ",
"    6      666    666      6    ",
"    6      666    666      6    ",
"                                ",
"                                ",
"                                "
};
