/* XPM */
static char *ghost_right_11713339732[] = {
/* columns rows colors chars-per-pixel */
"32 32 75 1 ",
"  c None",
". c black",
"X c #000001",
"o c #050504",
"O c gray2",
"+ c #101010",
"@ c #111111",
"# c gray8",
"$ c #13779F",
"% c #14779F",
"& c #1378A0",
"* c #1379A2",
"= c #267BA1",
"- c #6588A0",
"; c #1993C3",
": c #1DA3D7",
"> c #1FA8DF",
", c #0BADE6",
"< c #0CADE6",
"1 c #0FADE6",
"2 c #17AEE6",
"3 c #18AEE6",
"4 c #1AAEE6",
"5 c #1BAEE6",
"6 c #1CAEE6",
"7 c #1DAEE6",
"8 c #1EAEE6",
"9 c #1FAEE6",
"0 c #20AEE6",
"q c #34B0E6",
"w c #3AB0E6",
"e c #3AB1E6",
"r c #3FB1E6",
"t c #42B1E6",
"y c #4AB2E5",
"u c #4BB2E5",
"i c #77BBE4",
"p c #78BBE4",
"a c #7ABCE4",
"s c #7FBDE4",
"d c #9B9B9B",
"f c #9D9D9D",
"g c gray",
"h c #82BEE4",
"j c #87BFE4",
"k c #8CC0E3",
"l c #92C2E3",
"z c #96C3E3",
"x c #9AC5E3",
"c c #9DC6E2",
"v c #A0C6E2",
"b c #A0C7E2",
"n c #A1C7E2",
"m c #A6C9E2",
"M c #ACCAE0",
"N c #AFCCE1",
"B c #B0CCE1",
"V c #B4CDE1",
"C c #B5CEE1",
"Z c #B6CEE1",
"A c #B8CFE1",
"S c #BED1E0",
"D c #CDCDCD",
"F c #D9DCDE",
"G c gainsboro",
"H c #DDDCDC",
"J c #DDDDDD",
"K c gray87",
"L c #DFDEDE",
"P c #DFDFDE",
"I c #E0DFDE",
"U c #C1D2E0",
"Y c #C2D3E0",
"T c #C3D3E0",
"R c #C5D4E0",
/* pixels */
"                                ",
"                                ",
"                                ",
"             0000000            ",
"             0000000            ",
"         000000000000000        ",
"         000000000000007        ",
"       000722270000007424       ",
"      0000rZBZi000000hZBZe0     ",
"      0000uILLl700009cKKLe0     ",
"      007anLLLAxa904zSKKLcx     ",
"      004NLLLGHHM401FKKJGGG     ",
"      004NLJJ#OO*002FKKg.OO     ",
"      004NLLJ@..$77<FJKg...     ",
"    00004BLLJ@..%00<JJLg...:0   ",
"    00007jNLJf-*;004mRLDd=*>0   ",
"    000007uLLIl000007nLLLe000   ",
"    000007tRUUs000000jUUUq000   ",
"    0000007<,,40000004,<,0000   ",
"    0000000000000000000070000   ",
"    0000000000000000000000000   ",
"    0000000000000000000000000   ",
"    0000000000000000000000000   ",
"    0000000000000000000000000   ",
"    0000000000000000000000000   ",
"    0000000 00000000  0000000   ",
"      000     0000      000     ",
"      000     0000      000     ",
"                                ",
"                                ",
"                                ",
"                                "
};
