/* XPM */
static char *ghost_up_11713339732[] = {
/* columns rows colors chars-per-pixel */
"32 32 67 1 ",
"  c None",
". c black",
"X c #001019",
"o c #011019",
"O c #161717",
"+ c #00293A",
"@ c #032A3A",
"# c #363738",
"$ c gray49",
"% c #07ACE5",
"& c #07ADE6",
"* c #08ADE6",
"= c #09ADE6",
"- c #08AEE7",
"; c #0EADE6",
": c #0FADE6",
"> c #19AEE6",
", c #1AAEE6",
"< c #1EAEE6",
"1 c #1FAEE6",
"2 c #20ADE5",
"3 c #20AEE6",
"4 c #21AEE6",
"5 c #20AFE7",
"6 c #22AEE6",
"7 c #27AEE6",
"8 c #30AFE6",
"9 c #31AFE6",
"0 c #3AB0E6",
"q c #3BB0E6",
"w c #3CB0E6",
"e c #3DB0E6",
"r c #40B1E6",
"t c #42B1E6",
"y c #46B2E5",
"u c #51B3E5",
"i c #57B4E5",
"p c #63B6E5",
"a c #65B7E5",
"s c #939393",
"d c #989898",
"f c gray60",
"g c #9D9D9D",
"h c gray69",
"j c #B9B9B9",
"k c #8DC1E3",
"l c #92C2E3",
"z c #93C2E3",
"x c #B1CCE1",
"c c #B3CDE1",
"v c #D2D9DF",
"b c #D7DBDE",
"n c #D7DBDF",
"m c #D9DCDE",
"M c #DBDDDE",
"N c #DDDEDE",
"B c gray87",
"V c #DFDEDE",
"C c #DFDFDE",
"Z c #DFDFDF",
"A c #E0DFDE",
"S c #C0D2E0",
"D c #C1D2E0",
"F c #C4D3E0",
"G c #C4D4E0",
"H c #C6D4E0",
"J c #D8DCE0",
/* pixels */
"                                ",
"                                ",
"                                ",
"                                ",
"             3333333            ",
"         ...o3333335@...        ",
"         ...o&,333&&@...        ",
"       BBs..Obk339JJ#..$J       ",
"       vBjdddBl339BZgddhA       ",
"      =FBBZBZBl339BBBZZBAw3     ",
"      &HBBBBBAl339BBBBBBAq3     ",
"      &HBABBBAl339ZABBBBAw3     ",
"      1wrcBBBy9333rwmBBSw33     ",
"      33,xAAB733333:BABS:33     ",
"    33333uaaa3333333paai13333   ",
"    3333333333333333333333333   ",
"    3333333333333333333333333   ",
"    3333333333333333333333333   ",
"    3333333333333333333333333   ",
"    3333333333333333333333333   ",
"    3333333333333333333333333   ",
"    3333333333333333333333333   ",
"    3333333333333333333333333   ",
"    3333333333333333333333333   ",
"    3333333333333333333333333   ",
"    3333333 33333333  3333333   ",
"      333     3333      333     ",
"      333     3333      33      ",
"                                ",
"                                ",
"                                ",
"                                "
};
