/* XPM */
static char *ghost_left_11713339732[] = {
/* columns rows colors chars-per-pixel */
"32 32 83 1 ",
"  c None",
". c black",
"X c #000001",
"o c #161616",
"O c #1E1E1E",
"+ c #24211F",
"@ c gray14",
"# c #026D92",
"$ c #1B6F93",
"% c #1686B2",
"& c #2288B4",
"* c #7E8890",
"= c #1A97C8",
"- c #1FA9DF",
"; c #00ACE6",
": c #03ADE6",
"> c #05ADE6",
", c #07ADE6",
"< c #08ADE6",
"1 c #08AEE7",
"2 c #0EADE6",
"3 c #0FADE6",
"4 c #12ADE6",
"5 c #15ADE6",
"6 c #16AEE6",
"7 c #17AEE6",
"8 c #1FABE2",
"9 c #1AAEE6",
"0 c #1BAEE6",
"q c #1DAEE6",
"w c #1EAEE6",
"e c #1FAEE6",
"r c #20AEE6",
"t c #22AEE6",
"y c #24AEE6",
"u c #27AEE6",
"i c #2AAFE6",
"p c #2EAFE6",
"a c #31AFE6",
"s c #31B0E7",
"d c #61B6E5",
"f c #78BBE4",
"g c #7FBDE4",
"h c #8D8D8D",
"j c #8E8E8E",
"k c gray56",
"l c #AEAEAE",
"z c gray69",
"x c #89C0E3",
"c c #8AC0E3",
"v c #8BC0E3",
"b c #8EC1E3",
"n c #98C4E3",
"m c #9BC5E3",
"M c #9CC5E2",
"N c #9CC5E3",
"B c #A2C7E2",
"V c #A7C9E2",
"C c #A8C9E2",
"Z c #B2CCE1",
"A c #B4CDE1",
"S c #B5CEE1",
"D c #BDD1E1",
"F c #BFD1E0",
"G c gray76",
"H c #CCD7DF",
"J c #CED7DF",
"K c #D6DBDF",
"L c gray85",
"P c gray86",
"I c #D9DCDE",
"U c #DBDDDE",
"Y c #DDDEDE",
"T c gray87",
"R c #DFDEDE",
"E c #DFDFDE",
"W c #DFDFDF",
"Q c #E0DFDE",
"! c #C0D2E0",
"~ c #C2D2E0",
"^ c #C5D4E0",
"/ c #C5D4E1",
"( c #C9D5E0",
/* pixels */
"                                ",
"                                ",
"                                ",
"                                ",
"             rrrrrrr            ",
"         rrrrrrrrrrrrrrr        ",
"         rrrrrrrrrrrrrrr        ",
"       qqqqrrrrrrrqqqrrrr       ",
"      1nVVB5rrrrriVVCgqrrrr     ",
"      1HTTK>rrrrraTTTCqrrrr     ",
"      v(TTIxcrrrdbTTTFvfqrr     ",
"      QTTTTTTurrmQTTTTT!2qr     ",
"      @@OzTTTurr&@@oLTTF2rr     ",
"      ...lTTTurr%...LTT!2rr     ",
"    r-...lTTTirr%...LTT!2rrrr   ",
"    r8#*jGUAZrrr=$jjPJAN5rrrr   ",
"    rr1/TTK:5rrrrsTQTC40rrrrr   ",
"    rq4Z((!2rrrrrp((/mqrrrrrr   ",
"    rrr2>:1rrrrrrr:::5rrrrrrr   ",
"    rrrrrqrrrrrrrrrrrrrrrrrrr   ",
"    rrrrrrrrrrrrrrrrrrrrrrrrr   ",
"    rrrrrrrrrrrrrrrrrrrrrrrrr   ",
"    rrrrrrrrrrrrrrrrrrrrrrrrr   ",
"    rrrrrrrrrrrrrrrrrrrrrrrrr   ",
"    rrrrrrrrrrrrrrrrrrrrrrrrr   ",
"    rrrrrrr rrrrrrrr  rrrrrrr   ",
"      rrr     rrrr      rrr     ",
"      rrr     rrrr      rr      ",
"                                ",
"                                ",
"                                ",
"                                "
};
