/* XPM */
static char *portal1712395178[] = {
/* columns rows colors chars-per-pixel */
"32 32 215 2 ",
"   c None",
".  c gray13",
"X  c #222222",
"o  c gray14",
"O  c #252525",
"+  c gray15",
"@  c #272727",
"#  c #282828",
"$  c gray16",
"%  c #2A2A2A",
"&  c gray17",
"*  c #2C2C2C",
"=  c #2D2D2D",
"-  c gray18",
";  c #2F2F2F",
":  c gray19",
">  c #313131",
",  c #323232",
"<  c gray20",
"1  c #343434",
"2  c #353535",
"3  c gray21",
"4  c #373737",
"5  c gray22",
"6  c #393939",
"7  c #3A3A3A",
"8  c gray23",
"9  c #3C3C3C",
"0  c gray24",
"q  c #3E3E3E",
"w  c gray25",
"e  c #414141",
"r  c gray26",
"t  c #434343",
"y  c #444444",
"u  c gray27",
"i  c #464646",
"p  c gray28",
"a  c #484848",
"s  c #494949",
"d  c gray29",
"f  c #4B4B4B",
"g  c #4C4C4C",
"h  c gray30",
"j  c #4E4E4E",
"k  c gray31",
"l  c #505050",
"z  c #515151",
"x  c gray32",
"c  c #535353",
"v  c gray33",
"b  c #555555",
"n  c #565656",
"m  c gray34",
"M  c #585858",
"N  c gray35",
"B  c #5A5A5A",
"V  c #5B5B5B",
"C  c gray36",
"Z  c #5D5D5D",
"A  c gray37",
"S  c #5F5F5F",
"D  c #606060",
"F  c gray38",
"G  c #626262",
"H  c gray39",
"J  c #646464",
"K  c #656565",
"L  c gray40",
"P  c #676767",
"I  c #686868",
"U  c DimGray",
"Y  c #6A6A6A",
"T  c gray42",
"R  c #6C6C6C",
"E  c #6D6D6D",
"W  c gray43",
"Q  c #6F6F6F",
"!  c gray44",
"~  c #717171",
"^  c #727272",
"/  c gray45",
"(  c #747474",
")  c gray46",
"_  c #767676",
"`  c gray47",
"'  c #797979",
"]  c gray48",
"[  c #7B7B7B",
"{  c #7C7C7C",
"}  c gray49",
"|  c #7E7E7E",
" . c gray50",
".. c #808080",
"X. c #818181",
"o. c gray51",
"O. c #838383",
"+. c #848484",
"@. c gray52",
"#. c #868686",
"$. c gray53",
"%. c #888888",
"&. c #898989",
"*. c gray54",
"=. c #8B8B8B",
"-. c #8D8D8D",
";. c #8E8E8E",
":. c gray56",
">. c #909090",
",. c gray57",
"<. c #929292",
"1. c #939393",
"2. c gray58",
"3. c #959595",
"4. c gray59",
"5. c #979797",
"6. c #989898",
"7. c gray60",
"8. c #9A9A9A",
"9. c #9B9B9B",
"0. c gray61",
"q. c #9D9D9D",
"w. c gray62",
"e. c #9F9F9F",
"r. c #A0A0A0",
"t. c gray63",
"y. c #A2A2A2",
"u. c gray64",
"i. c #A4A4A4",
"p. c #A5A5A5",
"a. c gray65",
"s. c #A7A7A7",
"d. c #A9A9A9",
"f. c #AAAAAA",
"g. c gray67",
"h. c #ACACAC",
"j. c gray68",
"k. c #AEAEAE",
"l. c #AFAFAF",
"z. c gray69",
"x. c #B1B1B1",
"c. c #B2B2B2",
"v. c gray70",
"b. c #B4B4B4",
"n. c gray71",
"m. c #B6B6B6",
"M. c #B7B7B7",
"N. c gray72",
"B. c #B9B9B9",
"V. c #BBBBBB",
"C. c #BCBCBC",
"Z. c gray74",
"A. c gray",
"S. c gray75",
"D. c #C0C0C0",
"F. c #C1C1C1",
"G. c gray76",
"H. c #C3C3C3",
"J. c gray77",
"K. c #C5C5C5",
"L. c #C6C6C6",
"P. c gray78",
"I. c #C8C8C8",
"U. c gray79",
"Y. c #CACACA",
"T. c #CBCBCB",
"R. c gray80",
"E. c #CDCDCD",
"W. c #CECECE",
"Q. c gray81",
"!. c #D0D0D0",
"~. c gray82",
"^. c #D2D2D2",
"/. c LightGray",
"(. c gray83",
"). c #D5D5D5",
"_. c gray84",
"`. c #D7D7D7",
"'. c #D8D8D8",
"]. c gray85",
"[. c #DADADA",
"{. c gray86",
"}. c gainsboro",
"|. c gray87",
" X c #DFDFDF",
".X c #E1E1E1",
"XX c #E2E2E2",
"oX c gray89",
"OX c #E4E4E4",
"+X c gray90",
"@X c #E6E6E6",
"#X c #E7E7E7",
"$X c gray91",
"%X c #E9E9E9",
"&X c #EAEAEA",
"*X c gray92",
"=X c #ECECEC",
"-X c gray93",
";X c #EEEEEE",
":X c #EFEFEF",
">X c #F1F1F1",
",X c gray95",
"<X c #F3F3F3",
"1X c #F4F4F4",
"2X c gray96",
"3X c #F6F6F6",
"4X c gray97",
"5X c #F8F8F8",
"6X c #F9F9F9",
"7X c gray98",
"8X c #FBFBFB",
"9X c gray99",
"0X c #FDFDFD",
"qX c #FEFEFE",
"wX c white",
/* pixels */
"                                & &                             ",
"                      = , 1 8 8 0 8 0 1 , =                     ",
"                  , 1 8 t a x x x x x a u t 1 ,                 ",
"            @ & 1 0 u x M F J Q U Q U J Z n k t 8 =             ",
"          & & 1 t k M U / [  .X.@.@.X. ._ Q F n u 8 ,           ",
"          = 1 u n F / X.&.<.7.w.w.w.7.<.-.X.[ U Z k 0 ,         ",
"        = 1 a M U [ @.2.w.f.l.x.M.x.x.l.p.7.-.X./ Z k 0 ,       ",
"      @ , t n U [ -.w.f.M.B.F.P.P.P.P.A.B.l.p.2.X./ Z a 8 =     ",
"      = 0 k J [ &.w.l.B.P.W.`.`.[.[.[.~.Y.F.M.r.2.@.Q M u 1     ",
"    & 1 a Z / &.w.l.A.Y.`.|.oX*X*X*XOXoX[.~.F.M.p.<. .J x 0 =   ",
"    = 0 n U X.2.f.A.Y.[.OX;X2X8X8X8X2X>X*X|.~.P.x.w.&._ Z u 1   ",
"    , u M / -.r.M.P.`.OX;X8X0X0X0X0X0X8X>X*X|.W.A.l.2.X.J k 8   ",
"  & 1 k F [ 2.f.A.W.|.;X8X0X0X0X0X0X0X0X0X2XOX[.P.M.r.@./ M t , ",
"X @ 8 k U X.7.l.P.`.*X2X0X0X0X0X0X0X0X0X0X8X>X|.W.B.p.-./ M t = ",
"X & 8 x U @.w.M.P.|.*X8X0X0X0X0X0X0X0X0X0X0X2XOX~.A.f.<.[ Z u , ",
"X & 0 n Q &.r.M.Y.|.;X8X0X0X0X0X0X0X0X0X0X0X2XOX`.F.f.<.[ F a , ",
"X & 0 x Q &.r.M.Y.|.;X8X0X0X0X0X0X0X0X0X0X0X2XOX`.F.f.<.[ F a , ",
"X & 8 x U @.w.M.Y.[.*X8X0X0X0X0X0X0X0X0X0X8X2XoX~.A.f.<._ Z u , ",
"  & 8 x J X.7.x.P.`.OX2X0X0X0X0X0X0X0X0X0X8X*X|.Y.B.p.-./ M t = ",
"    1 a F [ <.f.B.W.|.;X8X0X0X0X0X0X0X0X0X>XOX`.P.x.w.@.Q n 0 = ",
"    , t M / @.w.x.P.`.oX;X2X0X0X0X0X0X8X>X*X|.W.A.f.<.[ F k 8   ",
"    & 8 x J  .<.f.B.P.`.oX*X>X2X8X8X2X;XOX|.W.F.l.w.@./ M u ,   ",
"      , t M Q @.7.f.B.P.`.[.oX*X*XOXOX|.`.W.F.M.r.<.[ F k 8 &   ",
"      & 8 k F _ &.7.f.M.F.Y.W.~.`.`.`.W.P.A.l.r.<. .U n t ,     ",
"      & = t k F _ &.2.p.l.B.A.P.P.F.A.A.M.f.w.-. .U M a 1 &     ",
"        & , t x F _ @.<.w.r.f.l.l.l.l.p.w.2.&. .Q M a 8 = @     ",
"          & , t k Z Q [ X.&.<.2.2.7.2.-.@. ./ J n a 8 = @       ",
"            & , t a n F Q / [ [  .X.[ _ / J Z x u 1 = @         ",
"              & = 8 t a n M F J J J F Z n k u 0 , & @           ",
"                    = 8 0 u a a k a a u t 8 1 =                 ",
"                        = , , 1 1 8 1 1 = &                     ",
"                          & & = , = & & @                       "
};
