/* XPM */
static char *wall__1_1712395178[] = {
/* columns rows colors chars-per-pixel */
"32 32 53 1 ",
"  c None",
". c #001429",
"X c #031434",
"o c #05143C",
"O c #00183F",
"+ c #061441",
"@ c #011841",
"# c #03184C",
"$ c #051753",
"% c #031A53",
"& c #061858",
"* c #09185E",
"= c #0A1863",
"- c #0D1769",
"; c #0D186C",
": c #0F1871",
"> c #101875",
", c #13187C",
"< c #161884",
"1 c #19178C",
"2 c #17188A",
"3 c #18188C",
"4 c #013A92",
"5 c #053A9B",
"6 c #073BA2",
"7 c #0B3AA4",
"8 c #0D3AA8",
"9 c #113AAD",
"0 c #1439B3",
"q c #173AB9",
"w c #1B39BE",
"e c #1F3AC4",
"r c #233ACB",
"t c #263AD0",
"y c #2B3AD5",
"u c #2E3AD9",
"i c #333ADE",
"p c #363AE1",
"a c #1468C6",
"s c #4FC5F0",
"d c #51C5F1",
"f c #5BC6F4",
"g c #54C8F1",
"h c #62C6F6",
"j c #66C6F9",
"k c #6CC6FA",
"l c #75C6FB",
"z c #7BC6FD",
"x c #67D5F4",
"c c #6AD6F6",
"v c #6EDAF6",
"b c #70DCF5",
"n c #81C6FD",
/* pixels */
" cffhjjkznnzkjjhffdddddssddddsx ",
"ca680wryippiyrw085554444444444ac",
"g5%%*->,<32<<>;*$#OOOOOO@@@@@%5f",
"g4O..Xoo+++XoXXX.............#6f",
"g4@..........................&9f",
"g4@.........................X=qh",
"g4@.........................X:ej",
"g4@.........................o,tj",
"g4O.........................o<ul",
"g4O.........................o1iz",
"g4O.........................+1pn",
"g4@.........................+2pn",
"f4@.........................o<ul",
"f5#.........................o,tj",
"h6#.........................o:ej",
"h9&X........................X=qh",
"h0=X.........................$9f",
"kr>X.........................o7f",
"kr,X.........................@5f",
"li,X.........................+4g",
"zi3+.........................@4g",
"ni3+.........................@5g",
"ni3+.........................O4g",
"li<o.........................O4g",
"kt,o.........................@4g",
"hr:X.........................O4g",
"h0=X.........................O4g",
"h9&..........................O4g",
"f6#..............XXoo+++ooX..@4g",
"g5%OOO@OOOOO@@#$=-><2332<:-*%%5g",
"ba444444444455580eryipiiyrw086av",
" cssssggssssssfffjjkznnlkhjfffv "
};
