/* XPM */
static char *ghost_left_11712656565[] = {
/* columns rows colors chars-per-pixel */
"32 32 84 1 ",
"  c None",
". c black",
"X c #003A13",
"o c #023A16",
"O c #007C36",
"+ c #4B524D",
"@ c #555555",
"# c gray35",
"$ c #5B5B5B",
"% c #5F5F5F",
"& c #605F60",
"* c #008038",
"= c #009635",
"- c #009738",
"; c #00973B",
": c #00973C",
"> c #00973D",
", c #00983D",
"< c #00983E",
"1 c #00983F",
"2 c #00993F",
"3 c #009542",
"4 c #009743",
"5 c #009840",
"6 c #009841",
"7 c #009842",
"8 c #009943",
"9 c #009944",
"0 c #019944",
"q c #039945",
"w c #009A44",
"e c #079945",
"r c #0C9946",
"t c #0D9946",
"y c #0D9B47",
"u c #3A874F",
"i c #229B4C",
"p c #259B4D",
"a c #339D54",
"s c #49A161",
"d c #50A265",
"f c #50A366",
"g c #52A367",
"h c #54A368",
"j c #56A46A",
"k c #5FA670",
"l c #74AD80",
"z c #77AE83",
"x c #79AF85",
"c c #7AAF85",
"v c #91B899",
"b c #A5A5A5",
"n c #AFAFAF",
"m c gray69",
"M c #ACC4B1",
"N c #AFC5B3",
"B c #B1C6B5",
"V c #B6C9BA",
"C c #B8CABC",
"Z c #B9CABD",
"A c #BECDC1",
"S c #BFCEC2",
"D c #C1CEC4",
"F c #C5D0C7",
"G c #C7D1C9",
"H c #D0D6D1",
"J c gray84",
"K c #D7D7D7",
"L c #D5D9D6",
"P c #D8DBD9",
"I c #D9DBD9",
"U c #DADCDA",
"Y c #DBDCDB",
"T c #DDDDDD",
"R c #DDDEDD",
"E c gray87",
"W c #DFDEDF",
"Q c #DFDFDF",
"! c #E0DFDF",
"~ c #E0DFE0",
"^ c gray88",
"/ c #E1E0E1",
"( c #E2E1E2",
") c #E3E2E3",
/* pixels */
"                                ",
"                                ",
"                                ",
"                                ",
"             9999999            ",
"          99999999999999        ",
"         999999999999999        ",
"       999999999999999999       ",
"       lccz8999999ccck999       ",
"      1A!!Y199999tEE!B89999     ",
"      dDEEYdde99ajEE!Vds989     ",
"      ///EE//p99v)!!E!!G189     ",
"      %%%mEEEp99u&&$KEEF>99     ",
"      ...bEEEp99O...JEEF>99     ",
"    94...bEEEp89O...JEEF>9999   ",
"    94X+#nEHHi99*o#@KIHZ19999   ",
"    881D!EI=;9999y!/YB=188999   ",
"    981CYYL199999tPYYM8888999   ",
"    9998118899999911889999999   ",
"    9999999999999999999999999   ",
"    9999999999999999999999999   ",
"    9999999999999999999999999   ",
"    9999999999999999999999999   ",
"    9999999999999999999999999   ",
"    9999999999999999999999999   ",
"    9999999 99999999  9999999   ",
"      999     9999     9999     ",
"      999     9999      999     ",
"      999      999      99      ",
"                                ",
"                                ",
"                                "
};
