/* XPM */
static char *ghost_down_21712656565[] = {
/* columns rows colors chars-per-pixel */
"32 32 66 1 ",
"  c None",
". c black",
"X c #092E14",
"o c #154F27",
"O c #006F2F",
"+ c #007331",
"@ c #007A35",
"# c #22703A",
"$ c #444444",
"% c #464646",
"& c gray45",
"* c #747474",
"= c #00853A",
"- c #009638",
"; c #009738",
": c #00983E",
"> c #00983F",
", c #009840",
"< c #009841",
"1 c #009942",
"2 c #009844",
"3 c #009944",
"4 c #019944",
"5 c #009A44",
"6 c #079945",
"7 c #089945",
"8 c #0D9946",
"9 c #139A48",
"0 c #199A49",
"q c #1C9A4A",
"w c #1E9B4B",
"e c #209B4B",
"r c #299C4F",
"t c #329B53",
"y c #319D53",
"u c #329D53",
"i c #329D54",
"p c #339E54",
"a c #3E9F5A",
"s c #7EB089",
"d c #9BBCA1",
"f c #9BBCA2",
"g c #A0A0A0",
"h c gray63",
"j c #A4C0AA",
"k c #B5C8B9",
"l c #B6C9BA",
"z c #B7C9BA",
"x c #B8CABB",
"c c #BDCCC0",
"v c #BECDC1",
"b c #C4D0C7",
"n c #CCD4CD",
"m c #D5D9D6",
"M c gray86",
"N c #DBDCDB",
"B c gainsboro",
"V c #DDDCDD",
"C c #DDDDDD",
"Z c gray87",
"A c #DFDFDF",
"S c #E0DFDF",
"D c gray88",
"F c #E1E0E1",
"G c #E1E1E1",
"H c #E2E1E2",
/* pixels */
"                                ",
"                                ",
"                                ",
"                                ",
"             3333333            ",
"          33333333333333        ",
"         333333333333333        ",
"        33333333333333333       ",
"       333333333333333333       ",
"      33333333333333333<333     ",
"      3339www3333333www0333     ",
"      3<>jZZZw<333,;mZZb;33     ",
"      <dlnZZZls337kkMZZmly3     ",
"      >cZZZZZZd338ZZZZZZSa3     ",
"      >cZZZZZZd3,8BZZZZZSa33    ",
"    33>cZZMMMZd338ZZMMMZSa333   ",
"    33<cZh...Zd338ZD%..&Ga333   ",
"    3<>cZh...Zd338ZF%..*Ga333   ",
"    333ri#...te333tiX..oi7333   ",
"    33333=OOO3333333+O+@33333   ",
"    3333333333333333333333333   ",
"    3333333333333333333333333   ",
"    3333333333333333333333333   ",
"    3333333333333333333333333   ",
"    3333333333333333333333333   ",
"    333  333333   333333  333   ",
"    33   33333    33333   333   ",
"    3      333    3333     33   ",
"    3      333    333      33   ",
"                                ",
"                                ",
"                                "
};
