/* XPM */
static char *ghost_up_21712656566[] = {
/* columns rows colors chars-per-pixel */
"32 32 66 1 ",
"  c None",
". c black",
"X c #002D0F",
"o c #13311B",
"O c gray17",
"+ c #3E3E3E",
"@ c gray29",
"# c #717171",
"$ c #009531",
"% c #009532",
"& c #00973A",
"* c #00973B",
"= c #00973C",
"- c #00973D",
"; c #00983D",
": c #00983E",
"> c #00983F",
", c #009743",
"< c #009840",
"1 c #009841",
"2 c #009842",
"3 c #009942",
"4 c #009943",
"5 c #009944",
"6 c #019944",
"7 c #009A45",
"8 c #0B9946",
"9 c #0D9946",
"0 c #249B4D",
"q c #359D55",
"w c #3A9E58",
"e c #3E9F5A",
"r c #44A05D",
"t c #4FA164",
"y c #4FA265",
"u c #51A466",
"i c #91B899",
"p c #9BBCA1",
"a c #9CBDA3",
"s c #A0A0A0",
"d c #A2BFA8",
"f c #A4C0A9",
"g c #B2C7B6",
"h c #BDCCC0",
"j c #C1CFC4",
"k c #C2CFC4",
"l c gray80",
"z c #CECECE",
"x c #C4D0C7",
"c c gray82",
"v c #D0D6D1",
"b c #D1D7D2",
"n c #D2D7D3",
"m c #D5D5D5",
"M c #D5D9D6",
"N c #D8DBD8",
"B c #DADCDB",
"V c #DBDCDB",
"C c #DDDDDD",
"Z c #DEDDDE",
"A c gray87",
"S c #DFDEDE",
"D c #DFDEDF",
"F c #E0DFDF",
"G c gray88",
"H c #E2E1E2",
/* pixels */
"                                ",
"                                ",
"                                ",
"             5555555            ",
"             5555555            ",
"         ....55555<5X...        ",
"         @...uq555uuo..O        ",
"       DDs...Fa559DH+..#H       ",
"      :kDmlllCi759CAzllvDr5     ",
"      :hDDDDDDa758CADDDADe5     ",
"      :hAAVDDDp559CACDAAHe<     ",
"      <gbMDDDni558vvCCACmq5     ",
"      5:&fCAA8<555&%nAAx%55     ",
"      55<fCCC05555<:mCCh:55     ",
"    5555<<<<<5555555<5<<55555   ",
"    5555757555555555555555555   ",
"    5555555555555555555555555   ",
"    5555555555555555555555555   ",
"    5555555555555555555555555   ",
"    5555555555555555555555555   ",
"    5555555555555555555555555   ",
"    5555555555555555555555555   ",
"    5555555555555555555555555   ",
"    5555555555555555555555555   ",
"    5555555555555555555555555   ",
"    555  55555    555555  555   ",
"    5      555    5555     55   ",
"    5      555    5555     55   ",
"                                ",
"                                ",
"                                ",
"                                "
};
