/* XPM */
static char *ghost_right_21712656565[] = {
/* columns rows colors chars-per-pixel */
"32 32 84 1 ",
"  c None",
". c black",
"X c #001705",
"o c #353535",
"O c #3F3F3F",
"+ c #403D3F",
"@ c #005C21",
"# c #005C26",
"$ c #006028",
"% c #396644",
"& c #008239",
"* c #008B3D",
"= c #009738",
"- c #00973B",
"; c #00973C",
": c #00973D",
"> c #00983C",
", c #00983D",
"< c #00983E",
"1 c #00983F",
"2 c #009841",
"3 c #009942",
"4 c #009943",
"5 c #009944",
"6 c #019944",
"7 c #009A44",
"8 c #179A48",
"9 c #218643",
"0 c #319D53",
"q c #349D54",
"w c #389E57",
"e c #3D9F59",
"r c #3D9F5A",
"t c #3E9F5A",
"y c #54A469",
"u c #5BA56D",
"i c #60A772",
"p c #61A772",
"a c #62A773",
"s c #63A874",
"d c #66A876",
"f c #67A976",
"g c #6FAB7D",
"h c #70AC7E",
"j c #71AC7F",
"k c #7DB088",
"l c #7FB189",
"z c #838683",
"x c #898888",
"c c gray56",
"v c gray59",
"b c #80B18A",
"n c #83B28D",
"m c #84B28E",
"M c #8DB696",
"N c gray69",
"B c #A4C0A9",
"V c #B0C6B4",
"C c #B8CABC",
"Z c #BCCCBF",
"A c #C1CEC4",
"S c #C5D1C7",
"D c #C6D1C8",
"F c #C7D1C9",
"G c #C7D2C9",
"H c #C8D2CA",
"J c #CBD3CC",
"K c LightGray",
"L c gray83",
"P c #D7D7D7",
"I c #D4D9D5",
"U c #D5D9D6",
"Y c #D6DAD7",
"T c gray87",
"R c #DFDEDF",
"E c #DFDFDF",
"W c #E0DFDF",
"Q c #E0DFE0",
"! c gray88",
"~ c #E1E0E1",
"^ c #E1E1E1",
"/ c #E2E1E1",
"( c #E2E1E2",
") c #E3E2E3",
/* pixels */
"                                ",
"                                ",
"                                ",
"                                ",
"             5555555            ",
"         55555555555555         ",
"         55555555555555         ",
"       555555555555555555       ",
"       555rblbq555554hkkl       ",
"      5555j~E~p55555-SWEI-5     ",
"      554uMEEEmfw558sJTTIpf     ",
"      55;FEEE~~~m54rQETE~~~     ",
"      55;FTTIoO+955rETEvOOO     ",
"      55;FTTI...&44rEEEc...     ",
"    5555;STTK...&54rEEEv..X7    ",
"    55554NZ!Ix%#*540CIENz@$5    ",
"    555544g~E~p55555-DWWI-55    ",
"    555555pFSFy55555;VSSZ-55    ",
"    5555554,,,45555554;;,555    ",
"    555555555455555555555555    ",
"    555555555555555555555555    ",
"    555555555555555555555555    ",
"    555555555555555555555555    ",
"    555555555555555555555555    ",
"    555555555555555555555555    ",
"    55   55555    55555   55    ",
"    5      555    555      5    ",
"    5      555    555      5    ",
"                                ",
"                                ",
"                                ",
"                                "
};
