/* XPM */
static char *ghost_right_11712656565[] = {
/* columns rows colors chars-per-pixel */
"32 32 69 1 ",
"  c None",
". c black",
"X c #222222",
"o c gray14",
"O c #252525",
"+ c #006026",
"@ c #006028",
"# c #006D2E",
"$ c #006E2F",
"% c #2A723F",
"& c #008038",
"* c #008B3D",
"= c #00973C",
"- c #00983E",
"; c #009341",
": c #009840",
"> c #009841",
", c #009842",
"< c #009942",
"1 c #009943",
"2 c #009944",
"3 c #009A44",
"4 c #2A9C50",
"5 c #2C9C50",
"6 c #339D54",
"7 c #349D54",
"8 c #359D55",
"9 c #3D9F59",
"0 c #3E9F5A",
"q c #6F8874",
"w c #74AD80",
"e c #79AF85",
"r c #7AAF85",
"t c #7EB089",
"y c #7EB189",
"u c #7FB189",
"i c #83B28D",
"p c #94B99C",
"a c #96BA9E",
"s c #9BBCA1",
"d c #9DBDA3",
"f c #9EBEA5",
"g c #A1A0A1",
"h c gray64",
"j c #A1BFA7",
"k c #A2BFA8",
"l c #A5C1AB",
"z c #A8C2AD",
"x c #B3C6B6",
"c c #B7C9BA",
"v c #B7C9BB",
"b c #B8CABB",
"n c #BBCBBE",
"m c #BDCCC0",
"M c #BECDC1",
"N c #BFCDC1",
"B c #C5C5C5",
"V c #D2D2D2",
"C c #D6D9D6",
"Z c #D6D9D7",
"A c gray86",
"S c #DCDBDB",
"D c #DCDBDC",
"F c #DDDDDD",
"G c gray87",
"H c #DFDEDF",
"J c #DFDFDF",
"K c #E0DFDF",
"L c #E0DFE0",
/* pixels */
"                                ",
"                                ",
"                                ",
"             2222222            ",
"             2222222            ",
"         222222222222222        ",
"         211221222222122        ",
"       22221=1122222211=1       ",
"      22224bxct222222rcxc92     ",
"      22228JJJs122222pHJK92     ",
"      222wjJJJmdt12,pmAJKkd     ",
"      222kJJJASDx,2=CJJJASD     ",
"      221lJJJX..+22-CJJB...     ",
"      221lDJJX..+21=CJSB...     ",
"    22221lJJJX..@11=CJJB...*2   ",
"    22221rzJJgq$&111fmJVg%$;2   ",
"    2222218KJHs222221pKJJ9222   ",
"    2222215mmmi222221tmmm8222   ",
"    22222221==22222221--=2222   ",
"    2222222222222222222222222   ",
"    2222222222222222222222222   ",
"    2222222222222222222222222   ",
"    2222222222222222222222222   ",
"    2222222222222222222222222   ",
"    2222222222222222222222222   ",
"    2222222 22222222  2222222   ",
"      222     2222      222     ",
"      222     2222      222     ",
"                                ",
"                                ",
"                                ",
"                                "
};
