/* XPM */
static char *ghost_up_11712656565[] = {
/* columns rows colors chars-per-pixel */
"32 32 66 1 ",
"  c None",
". c black",
"X c #002D0E",
"o c #003212",
"O c #383F39",
"+ c gray32",
"@ c #626262",
"# c #686868",
"$ c #00973C",
"% c #00973D",
"& c #00963F",
"* c #00983E",
"= c #00983F",
"- c #009840",
"; c #009940",
": c #009942",
"> c #009843",
", c #009943",
"< c #009944",
"1 c #009A45",
"2 c #049945",
"3 c #089945",
"4 c #0D9946",
"5 c #189A49",
"6 c #219B4C",
"7 c #259B4D",
"8 c #3D9F5A",
"9 c #3E9F5A",
"0 c #5BA56E",
"q c #71AC7E",
"w c #79AF85",
"e c #7FB18A",
"r c #868686",
"t c gray56",
"y c #83B28D",
"u c #84B38E",
"i c #85B38F",
"p c #89B492",
"a c #91B899",
"s c #9BBCA1",
"d c #9BBCA2",
"f c #9DBDA4",
"g c #A9A9A9",
"h c #A4C0A9",
"j c #A5C1AB",
"k c #B6C7B9",
"l c #B6C9BA",
"z c #B9CBBC",
"x c #BACBBD",
"c c #BCCCBF",
"v c #BDCCC0",
"b c #BECDC1",
"n c #C5D0C7",
"m c #CDD5CF",
"M c #D6D9D6",
"N c #D8DBD9",
"B c #D9DBDA",
"V c gainsboro",
"C c #DDDDDD",
"Z c gray87",
"A c #DFDEDF",
"S c #DFDFDF",
"D c #E0DFDF",
"F c gray88",
"G c #E1E0E1",
"H c #E1E1E1",
/* pixels */
"                                ",
"                                ",
"                                ",
"                                ",
"             <<<<<<<            ",
"          ...><<<<<<o...        ",
"         ....%:<<<:=X...        ",
"        Zt...ke<<3lxO..@H       ",
"       BZg+++Vs<:4ZF#++rH       ",
"      =cZZHHHZs<:4ZZFFFHD8<     ",
"      %bZZZZZZs<<4ZZZZZZD8<     ",
"      =bZZZZZDs<<4ZZZZZZH8<     ",
"      :qixZZZp0<<2uyBZZmu6<     ",
"      <<<jZZZ7<<<<<%MDZn%<<     ",
"    <<<<:whhh5<<<<<>fhfa::<<    ",
"    <<<<<<<:<<<<<<::<<2:<<<<<   ",
"    <<<<<<<<<<<<<<<<<<<<<<<<<   ",
"    <<<<<<<<<<<<<<<<<<<<<<<<<   ",
"    <<<<<<<<<<<<<<<<<<<<<<<<<   ",
"    <<<<<<<<<<<<<<<<<<<<<<<<<   ",
"    <<<<<<<<<<<<<<<<<<<<<<<<<   ",
"    <<<<<<<<<<<<<<<<<<<<<<<<<   ",
"    <<<<<<<<<<<<<<<<<<<<<<<<<   ",
"    <<<<<<<<<<<<<<<<<<<<<<<<<   ",
"    <<<<<<<<<<<<<<<<<<<<<<<<<   ",
"    <<<<<<< <<<<<<<<  <<<<<<<   ",
"    <<<<<<<  <<<<<<<  <<<<<<    ",
"      <<<     <<<<      <<<     ",
"      <<<      <<<      <<      ",
"                                ",
"                                ",
"                                "
};
