/* XPM */
static char *ghost_left_21712656565[] = {
/* columns rows colors chars-per-pixel */
"32 32 79 1 ",
"  c None",
". c black",
"X c #010000",
"o c #007B32",
"O c #007B35",
"+ c #007C36",
"@ c #008D3A",
"# c #009635",
"$ c #009738",
"% c #00973B",
"& c #00973C",
"* c #00973D",
"= c #00983D",
"- c #00983E",
"; c #00983F",
": c #0B8F41",
"> c #009542",
", c #009643",
"< c #009841",
"1 c #009842",
"2 c #009942",
"3 c #009943",
"4 c #009944",
"5 c #019944",
"6 c #049945",
"7 c #099945",
"8 c #0C9946",
"9 c #0D9946",
"0 c #219B4C",
"q c #259B4D",
"w c #50A366",
"e c #58A56C",
"r c #5AA56D",
"t c #5CA56E",
"y c #65A875",
"u c #6DAA7B",
"i c #7AA984",
"p c #7EB089",
"a c #80B18A",
"s c #81B18B",
"d c #83B28D",
"f c #A4A4A4",
"g c #A5A5A5",
"h c #B0BEB3",
"j c gray75",
"k c #ABC3B0",
"l c #AFC5B3",
"z c #B1C6B5",
"x c #B6C9B9",
"c c #B7C9BB",
"v c #B9CABD",
"b c #BCCCBF",
"n c #BECDC1",
"m c #C0C0C0",
"M c #CECECE",
"N c gray81",
"B c #C5D0C7",
"V c #C7D1C9",
"C c #CDD4CE",
"Z c #CDD5CE",
"A c #CED5CF",
"S c #D0D0D0",
"D c #D5D5D5",
"F c gray84",
"G c #D7D7D7",
"H c #D3D8D4",
"J c #D7DAD7",
"K c #D7DAD8",
"L c #D8DBD9",
"P c #D9DBD9",
"I c #DADCDA",
"U c #DADCDB",
"Y c gainsboro",
"T c #DDDDDD",
"R c #DDDEDD",
"E c gray87",
"W c #DFDEDF",
"Q c #DFDFDF",
"! c #E0DFE0",
/* pixels */
"                                ",
"                                ",
"                                ",
"             4444444            ",
"             4444444            ",
"         444444444444444        ",
"         444444444444444        ",
"       ----4444444---<444       ",
"      <vPPH-4444<9GGPk<4444     ",
"      #bEEP#&444,,WYEl$&444     ",
"      NGEEECC044dCY!EKCx-44     ",
"      jnjCEEEq44imnjYEEB&44     ",
"      XXXfEEEq44oXXXDEEB&44     ",
"      XXXgEEEq44+XXXDEEV&44     ",
"    4,XXXgE!!q44OXXXDW!V&4444   ",
"    44@hNGPet744,:NCEvew44444   ",
"    44-nQ!U<4444,9EEEz<444444   ",
"    44<ussp<444446pdsy4444444   ",
"    4444<44444444444444444444   ",
"    4444444444444444444444444   ",
"    4444444444444444444444444   ",
"    4444444444444444444444444   ",
"    4444444444444444444444444   ",
"    4444444444444444444444444   ",
"    444 4444444   444444 4444   ",
"    444  44444    444444  444   ",
"    4      444    4444     44   ",
"    4      444    4444     44   ",
"                                ",
"                                ",
"                                ",
"                                "
};
