/* XPM */
static char *ghost_down_11712656565[] = {
/* columns rows colors chars-per-pixel */
"32 32 71 1 ",
"  c None",
". c black",
"X c #002708",
"o c #004A19",
"O c #006B27",
"+ c gray25",
"@ c #414341",
"# c #6B6F6C",
"$ c #717171",
"% c #008F3F",
"& c #009636",
"* c #00953A",
"= c #00973B",
"- c #00983B",
"; c #00983C",
": c #00983E",
"> c #00983F",
", c #009040",
"< c #009240",
"1 c #009442",
"2 c #009840",
"3 c #009841",
"4 c #009942",
"5 c #009943",
"6 c #009944",
"7 c #019944",
"8 c #0B9946",
"9 c #0C9946",
"0 c #0D9946",
"q c #0F9A47",
"w c #199A49",
"e c #399E57",
"r c #3C9F59",
"t c #3E9F5A",
"y c #5AA56D",
"u c #6DAA7B",
"i c #76AE83",
"p c #7BAF87",
"a c #959A96",
"s c #9F9F9F",
"d c #90B798",
"f c #97BA9E",
"g c #9BBCA1",
"h c gray",
"j c #A6C1AB",
"k c #B0C6B4",
"l c #B9CABC",
"z c #BDCCC0",
"x c #C1C1C1",
"c c #C6C6C6",
"v c #CECECE",
"b c #C6D1C8",
"n c #CDD4CE",
"m c #CED5CF",
"M c #CFD6D1",
"N c #D1D8D2",
"B c #D2D8D3",
"V c #D7DAD7",
"C c #D8DAD8",
"Z c #D9DBD9",
"A c #DADBDA",
"S c #DADCDB",
"D c gainsboro",
"F c #DCDDDC",
"G c #DDDDDD",
"H c gray87",
"J c #DFDFDF",
"K c #E0DFDF",
"L c #E0DFE0",
"P c gray88",
"I c #E1E1E1",
/* pixels */
"                                ",
"                                ",
"                                ",
"                                ",
"             6666666            ",
"         666666666666666        ",
"         666666666666666        ",
"       666666666666666666       ",
"       666666666666666666       ",
"      666666666666666666666     ",
"      666ypppq666663ippu366     ",
"      63>jLKPw3666>&VKKb&66     ",
"      >lZFHHHZf660CZHHHHSt6     ",
"      >zHHHHHHg660HHHHHHPt6     ",
"    66>zHHHHHHg630HHHHHHHt666   ",
"    66>zHvhhhHg668HHxhhcPt666   ",
"    66>zHs...Hg660HL+..$Pt666   ",
"    66>kMa...nd668MN@..#Br666   ",
"    666>*O...*3666*>X..o>6666   ",
"    666661%%%6666663,,*<36666   ",
"    6666666666666666666666666   ",
"    6666666666666666666666666   ",
"    6666666666666666666666666   ",
"    6666666666666666666666666   ",
"    6666666666666666666666666   ",
"    6666666 66666666  6666666   ",
"      666     6666      666     ",
"      666     6666      666     ",
"                                ",
"                                ",
"                                ",
"                                "
};
