/* XPM */
static char *ghost_right_11713340332[] = {
/* columns rows colors chars-per-pixel */
"32 32 59 1 ",
"  c None",
". c black",
"X c #B9AE00",
"o c #B9AF00",
"O c #D0C500",
"+ c #E9DC00",
"@ c #FAEC00",
"# c #FDEF00",
"$ c #FFF100",
"% c #FFF116",
"& c #FFF118",
"* c #FEF124",
"= c #B5AC4B",
"- c #FBEF56",
"; c #FBEE59",
": c #FBEE5B",
"> c #FAEE5E",
", c #FAEE62",
"< c #F9ED6A",
"1 c #F9EE6A",
"2 c #F8ED6F",
"3 c #F8ED70",
"4 c #A2A19E",
"5 c #9F9FA1",
"6 c gray65",
"7 c #A7A7A7",
"8 c #F3E98C",
"9 c #F4EA8C",
"0 c #F3EA93",
"q c #F2E997",
"w c #F1E99C",
"e c #F0E89D",
"r c #F1E99D",
"t c #EFE8A4",
"y c #EDE6AC",
"u c #EDE6AE",
"i c #EBE5B3",
"p c #EBE5B5",
"a c #EAE5B7",
"s c #EAE5B8",
"d c #E9E4BA",
"f c #E9E4BD",
"g c #E8E4BE",
"h c #E8E4BF",
"j c gray77",
"k c #D5D5D5",
"l c gray85",
"z c gray86",
"x c #DFDFDB",
"c c #DBDBDC",
"v c #DDDDDD",
"b c #DFDEDC",
"n c gray87",
"m c #DEDEDF",
"M c #E6E2C7",
"N c #E5E2CB",
"B c #E4E1CD",
"V c #DDDEE0",
"C c #DEDEE0",
/* pixels */
"                                ",
"                                ",
"                                ",
"             $$$$$$$            ",
"             $$$$$$$            ",
"         $$$$$$$$$$$$$$$        ",
"         $$$$$$$$$$$$$$$        ",
"       $$$$$$$$$$$$$$$$$$       ",
"      $$$$:saa-$$$$$$qaaa$$     ",
"      $$$$3Vmm<$$$$$$ammx$$     ",
"      $$$9ummmue,$$%eNmxmwe     ",
"      $$$Mmmmxlc8$$*mmmmzzx     ",
"      $$$Mmxk...O$$*mmm6...     ",
"      $$$Mmmk...O$$*xmx6...     ",
"    $$$$$Mmmk...O$$*mmm7...@    ",
"    $$$$$0iml5=X+$$&tBmj4XX#$   ",
"    $$$$$$3VmV1$$$$$$smmx$$$$   ",
"    $$$$$$>fff:$$$$$$effs$$$$   ",
"    $$$$$$$$$$$$$$$$$$$$$$$$$   ",
"    $$$$$$$$$$$$$$$$$$$$$$$$$   ",
"    $$$$$$$$$$$$$$$$$$$$$$$$$   ",
"    $$$$$$$$$$$$$$$$$$$$$$$$$   ",
"    $$$$$$$$$$$$$$$$$$$$$$$$$   ",
"    $$$$$$$$$$$$$$$$$$$$$$$$$   ",
"    $$$$$$$$$$$$$$$$$$$$$$$$$   ",
"    $$$$$$$ $$$$$$$$ $$$$$$$$   ",
"      $$$     $$$$     $$$      ",
"      $$$     $$$$      $$      ",
"                                ",
"                                ",
"                                ",
"                                "
};
