/* XPM */
static char *ghost_left_21713340332[] = {
/* columns rows colors chars-per-pixel */
"32 32 69 1 ",
"  c None",
". c black",
"X c #000001",
"o c gray4",
"O c #151515",
"+ c gray14",
"@ c #A09700",
"# c #A29800",
"$ c #A39A00",
"% c #E7DA00",
"& c #EEE100",
"* c #F4E700",
"= c #FCEE00",
"- c #FFF100",
"; c #FFF101",
": c #FFF200",
"> c #FEF02A",
", c #EBDF48",
"< c #FCEF47",
"1 c #FCEF4C",
"2 c #FCEF4D",
"3 c #FCEF4F",
"4 c #FDF043",
"5 c #FBEF57",
"6 c #FBEF58",
"7 c #FBEE5C",
"8 c #F8ED73",
"9 c #F7EC7B",
"0 c gray75",
"q c #DAD49C",
"w c #F6EB81",
"e c #F6EB82",
"r c #F6EC81",
"t c #F5EB85",
"y c #F5EB86",
"u c #F4EB8A",
"i c #F1E999",
"p c #F1E99A",
"a c #EEE7A7",
"s c #EEE7A8",
"d c #C0C0C0",
"f c #C1C1C1",
"g c #C6C6C6",
"h c gray78",
"j c gray81",
"k c #D2D1C6",
"l c #CECFD1",
"z c #D8D8D8",
"x c gray86",
"c c #DFDFDA",
"v c #DFDEDD",
"b c gray87",
"n c #DEDEDF",
"m c #E1DFD7",
"M c #E0DFD8",
"N c #E0DFD9",
"B c #E7E3C2",
"V c #E7E3C4",
"C c #E6E2C6",
"Z c #E5E2C8",
"A c #E5E2CA",
"S c #E3E1CF",
"D c #E4E1CD",
"F c #E3E1D0",
"G c #E2E0D3",
"H c #E1E0D5",
"J c #E1E0D6",
"K c #DDDDE1",
"L c #DDDEE0",
/* pixels */
"                                ",
"                                ",
"                                ",
"             -------            ",
"             -------            ",
"         ---------------        ",
"         ---------------        ",
"       ------------------       ",
"      -FJcB------2cJcy-----     ",
"      -HvLC------<Lnvy-----     ",
"      DvvvcDV---sDLnvHDp---     ",
"      dd0zvvJ---q000vvva---     ",
"      XXXgvLJ---$XXOnnna---     ",
"      XXXhvvJ---$XX+nnca---     ",
"    -%XXXgvLJ---$XXonnLs-----   ",
"    -=&kjxA66---*,ljnp74-----   ",
"    ---HvvA------3Kvvu-------   ",
"    ---9rr8------>trt3-------   ",
"    -------------------------   ",
"    -------------------------   ",
"    -------------------------   ",
"    -------------------------   ",
"    -------------------------   ",
"    -------------------------   ",
"    --- -------  ------- ----   ",
"    --   -----    -----   ---   ",
"    -      ---    ---      --   ",
"    -      ---    ---      --   ",
"                                ",
"                                ",
"                                ",
"                                "
};
