/* XPM */
static char *ghost_down_21713340332[] = {
/* columns rows colors chars-per-pixel */
"32 32 59 1 ",
"  c None",
". c black",
"X c #534F0A",
"o c gray28",
"O c #484949",
"+ c #6F6F6F",
"@ c #6F7070",
"# c #807914",
"$ c #BBB100",
"% c #B6AC21",
"& c #C3B800",
"* c #CDC100",
"= c #DFD200",
"- c #FEF000",
"; c #FFF100",
": c #FFF101",
"> c #FFF200",
", c #FFF10B",
"< c #FFF113",
"1 c #FFF114",
"2 c #FFF11A",
"3 c #FFF11B",
"4 c #FFF11C",
"5 c #FEF11E",
"6 c #FBEE32",
"7 c #FEF030",
"8 c #FEF132",
"9 c #FEF033",
"0 c #FFF233",
"q c #FDF03F",
"w c #FCEF4E",
"e c #FCEF4F",
"r c #FBEF56",
"t c #F9ED6A",
"y c #F9ED6B",
"u c gray62",
"i c #9E9FA0",
"p c #EFE7A6",
"a c #ECE6AF",
"s c #EBE5B3",
"d c #EBE5B5",
"f c #EAE5B7",
"g c #EAE5B8",
"h c gray86",
"j c #DFDFDB",
"k c #DBDBDD",
"l c gainsboro",
"z c #DFDFDC",
"x c gray87",
"c c #E6E2C6",
"v c #E4E1CC",
"b c #E1E0D5",
"n c #E1E0D6",
"m c #DDDDE1",
"M c #DDDEE0",
"N c #DFDFE2",
"B c #DFDFE3",
"V c #DFE0E1",
"C c gray88",
/* pixels */
"                                ",
"                                ",
"                                ",
"                                ",
"             ;;;;;;;            ",
"         ;;;;;;;;;;;;;;         ",
"         ;;;;;;;;;;;;;;;        ",
"       ;;;;;;;;;;;;;;;;;;       ",
"       ;;;;;;;;;;;;;;;;;;       ",
"      ;;;;;;;;;;;;;;;;;;;;;     ",
"      ;;;2555;;;;;;;555<;;;     ",
"      ;;;cxxb;;;;;;2xxxp;;;     ",
"      ;adbxxjdr;;wssxxxvs;;     ",
"      ;bxxxxxmy;;exjxxxxj;;     ",
"     ;;bxxxxxxy;;emxxxxxj;;     ",
"    ;;;bxxhhhmy;;exxhhhxj;;;;   ",
"    ;;;bC@..oBt;;exx...uj;;;;   ",
"    ;;;bV@..OVt;;emk...iz;;;;   ",
"    ;;;80#..X0<;;,66...%8;;;;   ",
"    ;;;;;*$$&;;;;;;-$$$=;;;;;   ",
"    ;;;;;;;;;;;;;;;;;;;;;;;;;   ",
"    ;;;;;;;;;;;;;;;;;;;;;;;;;   ",
"    ;;;;;;;;;;;;;;;;;;;;;;;;;   ",
"    ;;;;;;;;;;;;;;;;;;;;;;;;;   ",
"    ;;;;;;;;;;;;;;;;;;;;;;;;;   ",
"    ;;   ;;;;;    ;;;;;;  ;;;   ",
"    ;;   ;;;;;    ;;;;;   ;;;   ",
"    ;      ;;;    ;;;      ;;   ",
"    ;      ;;;    ;;;      ;    ",
"                                ",
"                                ",
"                                "
};
