/* XPM */
static char *ghost_right_21713340332[] = {
/* columns rows colors chars-per-pixel */
"32 32 56 1 ",
"  c None",
". c black",
"X c #272400",
"o c #BFB500",
"O c #BFB535",
"+ c #C1B600",
"@ c #C3B800",
"# c #E4D800",
"$ c #E5D800",
"% c #F3E600",
"& c #FFF100",
"* c #FFF101",
"= c #FEF031",
"- c #FEF033",
"; c #FDF03B",
": c #FDF03C",
"> c #FCEF48",
", c #FCEF49",
"< c #FCEF50",
"1 c #F7EC6D",
"2 c #F7EC77",
"3 c #F8ED74",
"4 c gray55",
"5 c #8D8D8D",
"6 c #AAA99F",
"7 c #A6A6A8",
"8 c gray",
"9 c #F4EA8D",
"0 c #F2E996",
"q c #F1E99B",
"w c #F0E89E",
"e c #EEE7A6",
"r c #EFE8A2",
"t c #EFE8A3",
"y c #EFE8A5",
"u c #EEE7AA",
"i c #ECE6AF",
"p c #EBE5B5",
"a c #EAE5B8",
"s c #EAE5B9",
"d c #E9E4BC",
"f c #E9E4BD",
"g c gray79",
"h c #D5D5D5",
"j c #DADADA",
"k c gray86",
"l c #D9D9DC",
"z c #DDDDDD",
"x c gray87",
"c c #DEDEDF",
"v c #DFDFDF",
"b c #E0DFD9",
"n c #E5E2C9",
"m c #E2E0D3",
"M c #E2E0D4",
"N c #DDDEE0",
/* pixels */
"                                ",
"                                ",
"                                ",
"             &&&&&&&            ",
"             &&&&&&&            ",
"         &&&&&&&&&&&&&&         ",
"         &&&&&&&&&&&&&&         ",
"       &&&&&&&&&&&&&&&&&&       ",
"      &&&&2fdd;&&&&&&ufap&&     ",
"      &&&&9ccc>&&&&&&nczM&&     ",
"      &&&qfcccuy<&&-rMccbrr     ",
"      &&&mcccjjl1&&,Ncckjjj     ",
"      &&&mczg...#&&,ccv5...     ",
"      &&&mccg...#&&,ccv5...     ",
"   &&&&&&Mccg...#&&,NcM5..X&    ",
"   &&&&&&0ach7O+%&&-wMN87+@&    ",
"   &&&&&&&9ccN,&&&&&&nccm&&&    ",
"   &&&&&&&3aaa:&&&&&&yaai&&&    ",
"   &&&&&&&&&&&&&&&&&&&&&&&&&    ",
"   &&&&&&&&&&&&&&&&&&&&&&&&&    ",
"   &&&&&&&&&&&&&&&&&&&&&&&&&    ",
"   &&&&&&&&&&&&&&&&&&&&&&&&&    ",
"   &&&&&&&&&&&&&&&&&&&&&&&&&    ",
"   &&&&&&&&&&&&&&&&&&&&&&&&&    ",
"   &&&&&&&&&&&&&&&&&&&&&&&&&    ",
"   &&&  &&&&&&    &&&&&   &&    ",
"   &&      &&&    &&&      &    ",
"   &&      &&&    &&&      &    ",
"                                ",
"                                ",
"                                ",
"                                "
};
