/* XPM */
static char *ghost_down_11713340331[] = {
/* columns rows colors chars-per-pixel */
"32 32 59 1 ",
"  c None",
". c black",
"X c #4C4700",
"o c #7D7600",
"O c #434343",
"+ c #4B4A43",
"@ c #6D6D6D",
"# c #727168",
"$ c #B5AB00",
"% c #EFE200",
"& c #F1E400",
"* c #F3E600",
"= c #F7E900",
"- c #FDEF00",
"; c #FFF100",
": c #FFF101",
"> c #FFF200",
", c #FFF300",
"< c #FFF10F",
"1 c #FFF119",
"2 c #FCEF49",
"3 c #FCEF4C",
"4 c #FCEF4E",
"5 c #FBEE5B",
"6 c #FAEE63",
"7 c #F9EE68",
"8 c #F9ED6A",
"9 c #F8ED6E",
"0 c #F7EC76",
"q c #F7EC7B",
"w c gray62",
"e c #A3A194",
"r c gray",
"t c #EEE7A7",
"y c #C1C1C1",
"u c #C5C5C5",
"i c #CECECE",
"p c #DFDFDB",
"a c gainsboro",
"s c #DDDDDD",
"d c #DFDEDC",
"f c #DEDEDD",
"g c gray87",
"h c #DFDFDF",
"j c #E1DECD",
"k c #E0DFD9",
"l c #E6E2C7",
"z c #E5E2C8",
"x c #E4E2CC",
"c c #E3E1D0",
"v c #E3E1D1",
"b c #E5E3D1",
"n c #E4E2D3",
"m c #E1E0D5",
"M c #E1E0D6",
"N c #DDDEE0",
"B c #DEDEE0",
"V c #DFDFE2",
"C c gray88",
/* pixels */
"                                ",
"                                ",
"                                ",
"                                ",
"             ;;;;;;;            ",
"         ;;;;;;;;;;;;;;;        ",
"         ;;;;;;;;;;;;;;;        ",
"       ;;;;;;;;;;;;;;;;;;       ",
"       ;;;;;;;;;;;;;;;;;;       ",
"      ;;;;;;;;;;;;;;;;;;;;;     ",
"      ;;;9qq0;;;;;;<qqq5;;;     ",
"      ;;;zNNm;;;;;;1NNNt;;;     ",
"      ;cMggggM8;;4pMggggm;;     ",
"      ;mgNggNN8;;4Ngggggp;;     ",
"    ;;;mggggNN8;;4Ngggggp;;;    ",
"    ;;;mNurryN8;;4Ngrrrip;;;;   ",
"    ;;;mC@..OV8;;4Na...wg;;;;   ",
"    ;;;lb#..+n6;;2cj...ex;;;;   ",
"    ;;;;,o..X,;;;;;-...$;;;;;   ",
"    ;;;;;&%%&;;;;;;;%%%=;;;;;   ",
"    ;;;;;;;;;;;;;;;;;;;;;;;;;   ",
"    ;;;;;;;;;;;;;;;;;;;;;;;;;   ",
"    ;;;;;;;;;;;;;;;;;;;;;;;;;   ",
"    ;;;;;;;;;;;;;;;;;;;;;;;;;   ",
"    ;;;;;;;;;;;;;;;;;;;;;;;;;   ",
"    ;;;;;;; ;;;;;;;; ;;;;;;;;   ",
"      ;;;     ;;;;     ;;;      ",
"      ;;;     ;;;;      ;;      ",
"                                ",
"                                ",
"                                ",
"                                "
};
