/* XPM */
static char *ghost_up_21713340333[] = {
/* columns rows colors chars-per-pixel */
"32 32 55 1 ",
"  c None",
". c black",
"X c gray16",
"o c #544F00",
"O c #544F15",
"+ c #404142",
"@ c #484848",
"# c #6D6D6D",
"$ c #FCEE00",
"% c #FEF000",
"& c #FFF100",
"* c #FFF101",
"= c #FFF200",
"- c #FFF300",
"; c #FFF10A",
": c #FFF117",
"> c #FEF122",
", c #FEF124",
"< c #FCEF49",
"1 c #F9EC4F",
"2 c #FCEF4E",
"3 c #FCEF4F",
"4 c #FCEF51",
"5 c #FEF152",
"6 c #FAEE64",
"7 c #F9ED6A",
"8 c #F9ED6B",
"9 c gray62",
"0 c #EFE7A5",
"q c #EFE8A4",
"w c gray80",
"e c #CECECE",
"r c #D0D0D0",
"t c #D5D5D5",
"y c #DFDFDA",
"u c #DFDFDB",
"i c #DBDBDD",
"p c #DEDEDD",
"a c gray87",
"s c #E0DFD8",
"d c #E7E3C3",
"f c #E6E2C6",
"g c #E5E2C8",
"h c #E4E1CE",
"j c #E2E0D1",
"k c #E3E1D1",
"l c #E2E0D2",
"z c #E2E0D3",
"x c #E1E0D5",
"c c #E1E0D6",
"v c #DDDEE0",
"b c #DEDEE0",
"n c #DDDDE2",
"m c #DEDFE4",
"M c gray88",
/* pixels */
"                                ",
"                                ",
"                                ",
"             &&&&&&&            ",
"             &&&&&&$            ",
"         ...o&&&&&&$....        ",
"         X..O5>&&:41...@        ",
"       aM#..+m7&&5vi...9a       ",
"      &carwwev7&&3aawwety&&     ",
"      &caaaaav7&&3aaaaaau&&     ",
"      &caaaaav7&&3aaaaaau&&     ",
"      &gkyaaak6&&<jsaaash&&     ",
"      &&&faac&&&&&&;aaaq&&&     ",
"      &&&dyyk&&&&&&,yyyq&&&     ",
"    &&&&&&&&&&&&&&&&&&&&&&&&&   ",
"    &&&&&&&&&&&&&&&&&&&&&&&&&   ",
"    &&&&&&&&&&&&&&&&&&&&&&&&&   ",
"    &&&&&&&&&&&&&&&&&&&&&&&&&   ",
"    &&&&&&&&&&&&&&&&&&&&&&&&&   ",
"    &&&&&&&&&&&&&&&&&&&&&&&&&   ",
"    &&&&&&&&&&&&&&&&&&&&&&&&&   ",
"    &&&&&&&&&&&&&&&&&&&&&&&&&   ",
"    &&&&&&&&&&&&&&&&&&&&&&&&&   ",
"    &&&&&&&&&&&&&&&&&&&&&&&&&   ",
"    &&&&&&&&&&&&&&&&&&&&&&&&&   ",
"    &&   &&&&&    &&&&&&  &&&   ",
"    &      &&&    &&&      &&   ",
"    &      &&&    &&&      &&   ",
"                                ",
"                                ",
"                                ",
"                                "
};
