/* XPM */
static char *ghost_up_11713340332[] = {
/* columns rows colors chars-per-pixel */
"32 32 55 1 ",
"  c None",
". c black",
"X c #555000",
"o c #5D5700",
"O c #4D4B3A",
"+ c gray32",
"@ c #5F5F5F",
"# c #6A6A6A",
"$ c #FDEF00",
"% c #FFF100",
"& c #FFF300",
"* c #FFF118",
"= c #FEF124",
"- c #FEF02C",
"; c #FDF03D",
": c #FDF03F",
"> c #FCEF4E",
", c #FCEF4F",
"< c #FBEF57",
"1 c #F9ED6A",
"2 c #F9ED6B",
"3 c #F7EC7A",
"4 c #838383",
"5 c #8E8E8E",
"6 c gray66",
"7 c #F5EB83",
"8 c #F6EC80",
"9 c #F5EB84",
"0 c #F5EB86",
"q c #F4EB88",
"w c #F3EA92",
"e c #F1E89D",
"r c #EEE7A7",
"t c #EFE8A4",
"y c #E8E2B5",
"u c #EAE5B9",
"i c #E9E4BB",
"p c #ECE7BA",
"a c #DFDFDB",
"s c gainsboro",
"d c #DFDEDC",
"f c #DEDEDD",
"g c gray87",
"h c #DEDEDF",
"j c #DFDFDF",
"k c #E0DFD8",
"l c #E6E2C7",
"z c #E3E1CF",
"x c #E1E0D5",
"c c #E1E0D6",
"v c #DDDDE1",
"b c #DDDEE0",
"n c #DFDFE2",
"m c gray88",
"M c #E1E1E1",
/* pixels */
"                                ",
"                                ",
"                                ",
"                                ",
"             %%%%%%%            ",
"         ...o&%%%%%$...         ",
"         ...X&%%%%%%....        ",
"       gM@..Op<%%;uy...5g       ",
"       gc4++#n1%%>gg+++6g       ",
"      %cvMMnmv1%%>vggMMgg%%     ",
"      %cgggggv1%%>ggggggc%%     ",
"      %cvggggv1%%>vvgggvg%%     ",
"      %88xggc0;%%-0qgggu0%%     ",
"      %%%lggc%%%%%%=gggr%%%     ",
"    %%%%%wtte%%%%%%*ttt3%%%%    ",
"    %%%%%%%%%%%%%%%%%%%%%%%%%   ",
"    %%%%%%%%%%%%%%%%%%%%%%%%%   ",
"    %%%%%%%%%%%%%%%%%%%%%%%%%   ",
"    %%%%%%%%%%%%%%%%%%%%%%%%%   ",
"    %%%%%%%%%%%%%%%%%%%%%%%%%   ",
"    %%%%%%%%%%%%%%%%%%%%%%%%%   ",
"    %%%%%%%%%%%%%%%%%%%%%%%%%   ",
"    %%%%%%%%%%%%%%%%%%%%%%%%%   ",
"    %%%%%%%%%%%%%%%%%%%%%%%%%   ",
"    %%%%%%%%%%%%%%%%%%%%%%%%%   ",
"    %%%%%%% %%%%%%%% %%%%%%%%   ",
"    %%%%%%% %%%%%%%%  %%%%%%    ",
"      %%%     %%%%      %%      ",
"      %%      %%%%      %%      ",
"                                ",
"                                ",
"                                "
};
