/* XPM */
static char *ghost_left_11713340332[] = {
/* columns rows colors chars-per-pixel */
"32 32 69 1 ",
"  c None",
". c black",
"X c #010100",
"o c gray14",
"O c #625D00",
"+ c #67611B",
"@ c #555555",
"# c #5B5B56",
"$ c #595A5B",
"% c #5B5B5B",
"& c #5F5F5F",
"* c #606060",
"= c #656565",
"- c #A39A00",
"; c #B4AA00",
": c #DFD200",
"> c #EBDE00",
", c #FFF100",
"< c #FFF101",
"1 c #FFF200",
"2 c #FFF400",
"3 c #FEF027",
"4 c #FDF03D",
"5 c #B1A94C",
"6 c #FCEF49",
"7 c #FCEF4D",
"8 c #FCEF4E",
"9 c #FCEF4F",
"0 c #FDF043",
"q c #FEF14F",
"w c #FCEF50",
"e c #FBEF54",
"r c #F9ED6C",
"t c #F8ED6E",
"y c #F7EC78",
"u c #F7EC7A",
"i c #F7EC7B",
"p c #F5EB86",
"a c #F4EB8A",
"s c #F2E996",
"d c #F1E99C",
"f c #EEE7A7",
"g c #EEE7A8",
"h c #ECE6B8",
"j c gray78",
"k c #CACACA",
"l c #CBCBCB",
"z c #DFDFDB",
"x c #DFDEDC",
"c c gray87",
"v c #DEDEDF",
"b c #E1DFD7",
"n c #E0DFDA",
"m c #E7E3C3",
"M c #E6E2C6",
"N c #E6E2C7",
"B c #E5E2C8",
"V c #E5E2CA",
"C c #E3E1CF",
"Z c #E3E1D0",
"A c #E3E1D1",
"S c #E1E0D5",
"D c #E1E0D6",
"F c #E3E2D7",
"G c #DDDDE1",
"H c #DDDEE0",
"J c #DDDDE2",
"K c #DFE0E2",
"L c gray88",
/* pixels */
"                                ",
"                                ",
"                                ",
"                                ",
"             ,,,,,,,            ",
"         ,,,,,,,,,,,,,,         ",
"         ,,,,,,,,,,,,,,,        ",
"       ,,,,,,,,,,,,,,,,,,       ",
"       yyir,,,,,,3iyu6,,,       ",
"      ,DHHV,,,,,,wHvGa,,,,,     ",
"      qDvvVqw,,,0tvvvse4,,,     ",
"      HLvvvvD,,,hKKvvvvf,,,     ",
"      &&%kvzD,,,5&&=vvvf,,,     ",
"      ...jvvD,,2-..ozvzf,,,     ",
"    ,:...jvvD,,,-..ovvvg,,,,    ",
"    ,>O#@kzCM,,,;+$*vDCd,,,,,   ",
"    ,,2DLHM,,,,,,qHLvp,,,,,,,   ",
"    ,,,AnDm,,,,,,qvDza,,,,,,,   ",
"    ,,,,,,,,,,,,,,,,,,,,,,,,,   ",
"    ,,,,,,,,,,,,,,,,,,,,,,,,,   ",
"    ,,,,,,,,,,,,,,,,,,,,,,,,,   ",
"    ,,,,,,,,,,,,,,,,,,,,,,,,,   ",
"    ,,,,,,,,,,,,,,,,,,,,,,,,,   ",
"    ,,,,,,,,,,,,,,,,,,,,,,,,,   ",
"    ,,,,,,,,,,,,,,,,,,,,,,,,,   ",
"    ,,,,,,, ,,,,,,,, ,,,,,,,,   ",
"     ,,,,     ,,,,     ,,,,     ",
"      ,,,     ,,,,      ,,      ",
"      ,,      ,,,,      ,,      ",
"                                ",
"                                ",
"                                "
};
