/* XPM */
static char *pac_open_left1712395427[] = {
/* columns rows colors chars-per-pixel */
"32 32 2 1 ",
"  c None",
". c #FFF100",
/* pixels */
"                                ",
"                                ",
"                                ",
"                                ",
"          .........             ",
"          ..........            ",
"          .............         ",
"          .............         ",
"            ............        ",
"              ..........        ",
"              ..........        ",
"                ..........      ",
"                ...........     ",
"                 ..........     ",
"                 ..........     ",
"                   ........     ",
"                 ..........     ",
"                 ..........     ",
"                ...........     ",
"                ...........     ",
"                ..........      ",
"              ..........        ",
"            ............        ",
"            ............        ",
"          .............         ",
"          .............         ",
"          .........             ",
"          .........             ",
"                                ",
"                                ",
"                                ",
"                                "
};
