/* XPM */
static char *ghost_up_21713340510[] = {
/* columns rows colors chars-per-pixel */
"32 32 62 1 ",
"  c None",
". c black",
"X c gray11",
"o c #670003",
"O c #681F21",
"+ c #515151",
"@ c #5F6060",
"# c #DD0011",
"$ c #E60000",
"% c #E60001",
"& c #E60002",
"* c #E60003",
"= c #E60005",
"- c #E6000A",
"; c #E6000D",
": c #E6000E",
"> c #E60011",
", c #E40012",
"< c #E60012",
"1 c #E70012",
"2 c #E60113",
"3 c #E80012",
"4 c #E61720",
"5 c #E62229",
"6 c #E63D40",
"7 c #DD4D4F",
"8 c #E54447",
"9 c #E5494C",
"0 c #E54E51",
"q c #E54F52",
"w c #E55153",
"e c #E75254",
"r c #E56567",
"t c #E46C6D",
"y c #E46D6E",
"u c #B4B4B4",
"i c #E38C8D",
"p c gray80",
"a c gray81",
"s c #DFCBCC",
"d c #DFCDCE",
"f c #DFCECE",
"g c #D5D7D7",
"h c #DFD1D1",
"j c #DFD2D2",
"k c #DFD3D3",
"l c #DFD4D4",
"z c #DFD5D5",
"x c #DFD6D6",
"c c #D8D8D8",
"v c #DEDADA",
"b c #DEDBDB",
"n c #DDDDDD",
"m c #DEDCDC",
"M c gray87",
"N c #DEDFDF",
"B c #E0C7C7",
"V c #E0C8C9",
"C c #DEE0E0",
"Z c #DEE2E2",
"A c gray88",
"S c #E0E4E4",
/* pixels */
"                                ",
"                                ",
"                                ",
"             <<<<<<<            ",
"             <<<<<<<            ",
"         ...o3<<<<<#...         ",
"         X..Oe4<<5w7...         ",
"       MA+..@Sq<<yCg...uM       ",
"      $bMappaCq<<tMMpppcx$<     ",
"      $vMMMMMCq<<tCMMMMMx$<     ",
"      $vMMMMMCq<<tCMMMMMk$<     ",
"      =dhMMMbk9<<rxhMMMxB$<     ",
"      <$$hMMs$:<<-$6CMMi$<<     ",
"      <<$dvbV$<<<<<8Mvvi<<<     ",
"    <<<<<=$$=<<<<<<<$=$:<<<<    ",
"    <<<<<<<<<<<<<<<<<<<<<<<<    ",
"    <<<<<<<<<<<<<<<<<<<<<<<<    ",
"    <<<<<<<<<<<<<<<<<<<<<<<<    ",
"    <<<<<<<<<<<<<<<<<<<<<<<<    ",
"    <<<<<<<<<<<<<<<<<<<<<<<<    ",
"    <<<<<<<<<<<<<<<<<<<<<<<<    ",
"    <<<<<<<<<<<<<<<<<<<<<<<<    ",
"    <<<<<<<<<<<<<<<<<<<<<<<<    ",
"    <<<<<<<<<<<<<<<<<<<<<<<<    ",
"    <<<<<<<<<<<<<<<<<<<<<<<<    ",
"    <<  <<<<<<    <<<<<   <<    ",
"    <      <<<    <<<      <    ",
"    <      <<<    <<<      <    ",
"                                ",
"                                ",
"                                ",
"                                "
};
