/* XPM */
static char *ghost_down_11713340509[] = {
/* columns rows colors chars-per-pixel */
"32 32 63 1 ",
"  c None",
". c black",
"X c #000100",
"o c #220000",
"O c #2D2727",
"+ c #282828",
"@ c #8B0000",
"# c #CF0000",
"$ c #D00000",
"% c #DF0011",
"& c #E60000",
"* c #E70000",
"= c #E60004",
"- c #E60007",
"; c #E6000A",
": c #E6000D",
"> c #E6000F",
", c #E10011",
"< c #E60011",
"1 c #E50012",
"2 c #E60012",
"3 c #E60112",
"4 c #E60515",
"5 c #E60A18",
"6 c #E60D1A",
"7 c #E61E26",
"8 c #E6232A",
"9 c #E6242A",
"0 c #E6282D",
"q c #E62E33",
"w c #8A7979",
"e c #E54246",
"r c #E54347",
"t c #E46D6E",
"y c #E46E70",
"u c #E47577",
"i c #E47E7F",
"p c #888888",
"a c #AFAFAF",
"s c gray69",
"d c #B2B2B2",
"f c #E38C8D",
"g c #E38E8F",
"h c #E38F90",
"j c #CAB1B2",
"k c #CAB2B2",
"l c #E1AEAF",
"z c #E1BABA",
"x c #C1C1C1",
"c c #C8C8C8",
"v c gray79",
"b c #D5D5D5",
"n c gray84",
"m c #DEDBDB",
"M c #DEDDDD",
"N c gray87",
"B c #DEDFDF",
"V c #DFDFDF",
"C c #E0C3C3",
"Z c #E0C4C5",
"A c #E0C6C6",
"S c #E1C6C6",
"D c #DEE1E1",
/* pixels */
"                                ",
"                                ",
"                                ",
"             222222             ",
"             2222222            ",
"         22222222222222         ",
"         22222222222222         ",
"       222222222222222222       ",
"      222222222222222222222     ",
"      222222222222222222222     ",
"      22:gggu;22222rggge222     ",
"      26:mBBz-22246yDBBt522     ",
"      qBBBMVMM822gBBmBBBC*2     ",
"      qBBBMMBV922hBBBBBmZ*2     ",
"   222qBmBBMBB822gBmBBBBZ*22    ",
"   222qBBsaaxB922gBnaaanZ*22    ",
"   222qBB+XXpV922gBcXXXvZ*22    ",
"   2210ZZOXXwZ722iZkXXXkl*22    ",
"   2222**oXX@*222-*#XXX#*222    ",
"   2222221%%12222221%%%12222    ",
"   2222222222222222222222222    ",
"   2222222222222222222222222    ",
"   2222222222222222222222222    ",
"   2222222222222222222222222    ",
"   2222222222222222222222222    ",
"   2222222  22222222 2222222    ",
"     222      2222     222      ",
"      22      2222     222      ",
"                                ",
"                                ",
"                                ",
"                                "
};
