/* XPM */
static char *ghost_left_21713340510[] = {
/* columns rows colors chars-per-pixel */
"32 32 77 1 ",
"  c None",
". c black",
"X c gray24",
"o c #3F3F3F",
"O c #760000",
"+ c #750004",
"@ c #780005",
"# c gray27",
"$ c #C4000E",
"% c #D60000",
"& c #DA0010",
"* c #E60000",
"= c #E70000",
"- c #E60001",
"; c #E60002",
": c #E6000C",
"> c #E6000D",
", c #E6000E",
"< c #E20011",
"1 c #E60012",
"2 c #E60113",
"3 c #E80012",
"4 c #E80113",
"5 c #E6383C",
"6 c #E63C3F",
"7 c #E63C40",
"8 c #E55456",
"9 c #E5595B",
"0 c #E55C5E",
"q c #D56465",
"w c #E56869",
"e c #E4686A",
"r c #E4696A",
"t c #E46A6B",
"y c #E46A6C",
"u c #E46C6E",
"i c #E46D6F",
"p c #E47E80",
"a c gray75",
"s c #E48182",
"d c #E48283",
"f c #E48384",
"g c #E38586",
"h c #E38F8F",
"j c #E39091",
"k c #CAAAAA",
"l c #E1B4B5",
"z c #E1B5B6",
"x c #E1B8B9",
"c c #E1BABB",
"v c #E1BCBC",
"b c #E0BFC0",
"n c #C0C0C0",
"m c gray76",
"M c #CFCCCC",
"N c gray81",
"B c #DFCCCC",
"V c #DFCDCD",
"C c #DFCECE",
"Z c #CFD1D1",
"A c #D0D0D0",
"S c gray82",
"D c #DFD1D1",
"F c #DFD5D5",
"G c #DADADA",
"H c #DED8D8",
"J c #DED8D9",
"K c #DEDADA",
"L c gainsboro",
"P c #DEDCDC",
"I c #DEDDDD",
"U c gray87",
"Y c #DEDFDF",
"T c #DFDFDF",
"R c #DEE0E0",
"E c #DEE1E1",
"W c gray88",
/* pixels */
"                                ",
"                                ",
"                                ",
"             1111111            ",
"            11111111            ",
"         11111111111111         ",
"         111111111111111        ",
"       ****111111,***,111       ",
"      *FKKl*11111eKKKy12111     ",
"      *KIIx**112*wEIEr**111     ",
"      VIIIKVv*1*zDITIDVf111     ",
"      nnnGIIV*1*knnnEITh111     ",
"      ...SIIV*13O..oWIEh111     ",
"      ...SIIV*13@..#WITh111     ",
"    1$...SIIV*11+..oWTEj1111    ",
"    1<%MNIB88,11&qZMEg051111    ",
"    11*ITIx*11111iETEi111111    ",
"    11,pssi,111117ssf7111111    ",
"    111111111111111111111111    ",
"    111111111111111111111111    ",
"    111111111111111111111111    ",
"    111111111111111111111111    ",
"    111111111111111111111111    ",
"    111111111111111111111111    ",
"    111 1111111  1111111 111    ",
"    11   11111    11111   11    ",
"    1      111    111      1    ",
"    1      111    111      1    ",
"                                ",
"                                ",
"                                ",
"                                "
};
