/* XPM */
static char *ghost_left_11713340510[] = {
/* columns rows colors chars-per-pixel */
"32 32 77 1 ",
"  c None",
". c black",
"X c gray18",
"o c #323232",
"O c #500002",
"+ c #5D2F30",
"@ c #6D6D6D",
"# c gray46",
"$ c #960008",
"% c #89171A",
"& c #A6000A",
"* c #C0000D",
"= c #E60000",
"- c #E60002",
"; c #E60006",
": c #E6000C",
"> c #E6000E",
", c #E6000F",
"< c #E60010",
"1 c #E60011",
"2 c #E60012",
"3 c #E70012",
"4 c #E80011",
"5 c #E80012",
"6 c #E62A2F",
"7 c #E62E33",
"8 c #E72E33",
"9 c #E63A3E",
"0 c #E53F43",
"q c #875354",
"w c #E54043",
"e c #E54548",
"r c #E55A5C",
"t c #E56466",
"y c #E56869",
"u c #E46B6D",
"i c #E46C6E",
"p c #E47071",
"a c #E47879",
"s c #E47D7F",
"d c #E47F80",
"f c #838383",
"g c #848585",
"h c #9D9D9D",
"j c #E48384",
"k c #E48485",
"l c #E3898A",
"z c #E38F90",
"x c #E49091",
"c c #E39394",
"v c #E29B9C",
"b c #E29D9E",
"n c #E29E9E",
"m c #E29E9F",
"M c #E29F9F",
"N c #E2A0A1",
"B c #E2AAAB",
"V c #E1B4B5",
"C c #E1B9B9",
"Z c #E1BABA",
"A c #E1BBBC",
"S c #E0BDBD",
"D c #E0BFBF",
"F c #DFCDCD",
"G c #DFCECE",
"H c #DFCFCF",
"J c #DADADA",
"K c gray86",
"L c gainsboro",
"P c gray87",
"I c #DEDFDF",
"U c #DFDFDF",
"Y c #E0D6D6",
"T c #DEE0E0",
"R c #DFE0E0",
"E c #DEE1E1",
"W c gray88",
/* pixels */
"                                ",
"                                ",
"                                ",
"                                ",
"             2222222            ",
"         22222222222222         ",
"         22222222222222         ",
"       111122222221112222       ",
"       bbbp122221tbbm7112       ",
"      7RPPN111221zPPTe21222     ",
"      jRPPVsy:1;aBRPRlj9222     ",
"      RRPPTPA=2=JTPRPRTu222     ",
"      ooXKPPZ=25+oo#WPRu222     ",
"      ...JPPZ=25O..@WPRu222     ",
"   11&...JPPZ=12O..@WPRi2222    ",
"   12*%gfPFZv=11$qghRDSr2222    ",
"   2117WIIN==2225xWYTw=11122    ",
"   2118HFHc122221kHHHw112122    ",
"   2121====222221;;==1222222    ",
"   2222211222222121122222222    ",
"   2222212222222112222222222    ",
"   2222212222222222222222222    ",
"   2222222222222222222222222    ",
"   2222222222222222222222222    ",
"   2222222222222222222222222    ",
"   2222222  22222222 2222222    ",
"     222      2222     222      ",
"      22      2222     222      ",
"                                ",
"                                ",
"                                ",
"                                "
};
