/* XPM */
static char *ghost_right_21713340510[] = {
/* columns rows colors chars-per-pixel */
"32 32 82 1 ",
"  c None",
". c black",
"X c #4D0002",
"o c #610003",
"O c #660000",
"+ c #660609",
"@ c #565656",
"# c #535959",
"$ c #585858",
"% c #635455",
"& c #606060",
"* c #656565",
"= c gray50",
"- c #800005",
"; c #DD0011",
": c #DF0011",
"> c #DE171F",
", c #E60000",
"< c #E80000",
"1 c #E60008",
"2 c #E60009",
"3 c #E6000A",
"4 c #E6000E",
"5 c #E6000F",
"6 c #E60010",
"7 c #E60011",
"8 c #E60012",
"9 c #E60112",
"0 c #E80012",
"q c #E90012",
"w c #E60A18",
"e c #E61720",
"r c #E61A22",
"t c #E61B23",
"y c #E81B24",
"u c #E62B30",
"i c #E5484B",
"p c #E55658",
"a c #E55659",
"s c #E5585A",
"d c #E55A5C",
"f c #E55B5D",
"g c #E55E60",
"h c #E56062",
"j c #E46A6B",
"k c #E47374",
"l c #E47476",
"z c #E4797A",
"x c #E47A7C",
"c c #E47E7F",
"v c #E47E80",
"b c #848484",
"n c gray71",
"m c #BBBBBB",
"M c gray74",
"N c #E2A6A6",
"B c #E2A9AA",
"V c #E2ABAC",
"C c #E1B3B3",
"Z c #E1BCBC",
"A c #DFCECE",
"S c #DFD1D2",
"D c #DFD6D7",
"F c #DFD7D7",
"G c #DFD7D8",
"H c #DED8D8",
"J c #DED9D9",
"K c #DEDBDB",
"L c #DEDDDD",
"P c gray87",
"I c #DEDFDF",
"U c #DFDFDF",
"Y c #E0C2C2",
"T c #E2C3C3",
"R c #E0C6C6",
"E c #E0CACA",
"W c #DEE0E0",
"Q c #DEE2E2",
"! c gray88",
"~ c #E0E1E1",
"^ c #E0E2E2",
"/ c #E0E4E4",
/* pixels */
"                                ",
"                                ",
"                                ",
"                                ",
"             8888888            ",
"         88888888888888         ",
"         88888888888888         ",
"       888888888888888888       ",
"       888hcccw888883zccz       ",
"     88883VIIIr88888,GIIY,8     ",
"     8888sCIIIhfe88uaKIIRps     ",
"     8884KIII^^/i88kWII!^^^     ",
"     8884KIIm@$#>88kWI!=$$$     ",
"     8884KKIn...;88kII!*...     ",
"   888884KIIn...;88kWI^*..X0    ",
"   888884EDIM%++;88jEI!b%O-0    ",
"   888888,NI!^y08883,FI!Y<08    ",
"   8888883NKDGr88888,SHHZ<88    ",
"   8888888,,,,8888888,,,,888    ",
"   8888888888888888888888888    ",
"   8888888888888888888888888    ",
"   8888888888888888888888888    ",
"   8888888888888888888888888    ",
"   8888888888888888888888888    ",
"   8888888888888888888888888    ",
"   888  888888    88888  888    ",
"   88     8888    888      8    ",
"   88     8888    888      8    ",
"           888    888      8    ",
"                                ",
"                                ",
"                                "
};
