/* XPM */
static char *ghost_down_21713340509[] = {
/* columns rows colors chars-per-pixel */
"32 32 75 1 ",
"  c None",
". c black",
"X c #590D0F",
"o c #671113",
"O c #555555",
"+ c #565757",
"@ c gray39",
"# c #646565",
"$ c #A7000A",
"% c #A8000A",
"& c #B2000B",
"* c #B5000C",
"= c #BA272B",
"- c #D2000F",
"; c #E60000",
": c #E60001",
"> c #E60008",
", c #E6000F",
"< c #E20011",
"1 c #E60010",
"2 c #E60011",
"3 c #E60012",
"4 c #E70012",
"5 c #E60414",
"6 c #E60B18",
"7 c #E60F1B",
"8 c #E6131D",
"9 c #E61B23",
"0 c #E61C24",
"q c #E61E25",
"w c #E61E26",
"e c #DD3034",
"r c #E62F34",
"t c #E63136",
"y c #E63337",
"u c #E83337",
"i c #E83338",
"p c #E53F42",
"a c #E54145",
"s c #E54E51",
"d c #E54F51",
"f c #E55759",
"g c #E46C6D",
"h c #E46C6E",
"j c #B4B4B4",
"k c #B4B5B5",
"l c #E38D8E",
"z c #E1ADAE",
"x c #E1B3B3",
"c c #E1B5B6",
"v c #E1B7B7",
"b c #E1B8B8",
"n c #E1BABA",
"m c #DFCBCC",
"M c gray84",
"N c #D6D7D7",
"B c #DFD1D1",
"V c #DFD4D4",
"C c #DFD5D5",
"Z c gray86",
"A c #DFD8D8",
"S c #DED9D9",
"D c #DEDADA",
"F c #DEDBDB",
"G c gainsboro",
"H c #DDDDDD",
"J c gray87",
"K c #DEDFDF",
"L c #E0C6C6",
"P c #DEE0E0",
"I c #DEE1E1",
"U c gray88",
"Y c #E0E1E1",
"T c #E0E2E2",
"R c #E0E3E3",
/* pixels */
"                                ",
"                                ",
"                                ",
"                                ",
"             3333333            ",
"         33333333333333         ",
"         33333333333333         ",
"       333333333333333333       ",
"       333333333333333333       ",
"      333333333333333333333     ",
"      333qqq93333335qqq7333     ",
"      3::BJJm:333,:aKJFl:33     ",
"      >xcDJJCvp33fvnJJJmz:3     ",
"      :DJJJJJPs33gPJJJJJV:3     ",
"     3:DJJJJJPs33gPJJJJJV:3     ",
"    33:DJZZZJKs33gPJZZZJV:33    ",
"    33:DTO..@Ts33gPN...kC:33    ",
"    33:DT+..#Rs33gPN...kC:33    ",
"    333tuX..oi6338ye...=r333    ",
"    33331&%%*333333<$%%-3333    ",
"    333333333333333333333333    ",
"    333333333333333333333333    ",
"    333333333333333333333333    ",
"    333333333333333333333333    ",
"    333333333333333333333333    ",
"    33  333333    33333  333    ",
"    33   33333    33333   33    ",
"    3      333    333      3    ",
"    3      333    333      3    ",
"                                ",
"                                ",
"                                "
};
