/* XPM */
static char *pacman_woosh_111713351426[] = {
/* columns rows colors chars-per-pixel */
"32 32 2 1 ",
"  c None",
". c #FFF100",
/* pixels */
"                                ",
"                                ",
"                                ",
"                                ",
"                                ",
"                                ",
"                                ",
"           ..     ...           ",
"           ..     ...           ",
"        ..   ..  .              ",
"          .           ..        ",
"          .           ..        ",
"                     .          ",
"                     .          ",
"      ....                      ",
"      ....                      ",
"                      ....      ",
"          .                     ",
"          .                     ",
"          .                     ",
"        ..           .          ",
"             ..  .    ..        ",
"             ..  .    ..        ",
"           ..     ...           ",
"            .      .            ",
"                                ",
"                                ",
"                                ",
"                                ",
"                                ",
"                                ",
"                                "
};
