/* XPM */
static char *logo1712395692[] = {
/* columns rows colors chars-per-pixel */
"131 32 197 2 ",
"   c None",
".  c #1D191A",
"X  c #231C1C",
"o  c #2D1D1E",
"O  c #331F1D",
"+  c #2C2119",
"@  c #31241B",
"#  c #3A2C1B",
"$  c #241A25",
"%  c #261B35",
"&  c #2A1C3C",
"*  c #311F35",
"=  c #292223",
"-  c #332B34",
";  c #47181A",
":  c #59181A",
">  c #66181B",
",  c #74181B",
"<  c #562D1C",
"1  c #4A3819",
"2  c #523D15",
"3  c #673719",
"4  c #733C16",
"5  c #7B3817",
"6  c #72361B",
"7  c #702F18",
"8  c #4C2929",
"9  c #453628",
"0  c #5C352B",
"q  c #4A293C",
"w  c #462636",
"e  c #483531",
"r  c #463639",
"t  c #523E32",
"y  c #542D31",
"u  c #6C3A25",
"i  c #613523",
"p  c #763C21",
"a  c #5C4419",
"s  c #664914",
"d  c #7A4319",
"f  c #6D5313",
"g  c #755A12",
"h  c #755B1C",
"j  c #765A12",
"k  c #77590F",
"l  c #7D6317",
"z  c #5B442D",
"x  c #5C472B",
"c  c #5D4530",
"v  c #59463B",
"b  c #44403F",
"n  c #7D4122",
"m  c #6C5324",
"M  c #67483C",
"N  c #774C37",
"B  c #6E592F",
"V  c #7B642E",
"C  c #2C1D44",
"Z  c #2E1E4A",
"A  c #311F52",
"S  c #301E4F",
"D  c #332246",
"F  c #3B2548",
"G  c #352154",
"H  c #36215D",
"J  c #382352",
"K  c #3E354D",
"L  c #372162",
"P  c #382265",
"I  c #3B236D",
"U  c #3E2472",
"Y  c #402B42",
"T  c #412577",
"R  c #42257B",
"E  c #504D50",
"W  c #69574C",
"Q  c #725348",
"!  c #715145",
"~  c #685A57",
"^  c #765F58",
"/  c #6F614E",
"(  c #6D6257",
")  c #6A6768",
"_  c #766A65",
"`  c #746A67",
"'  c #7D7573",
"]  c #787575",
"[  c #79716F",
"{  c #881B1B",
"}  c #9B181B",
"|  c #A3171C",
" . c #BA171C",
".. c #823F16",
"X. c #C1161D",
"o. c #C8171D",
"O. c #DA161E",
"+. c #D7161D",
"@. c #E7151E",
"#. c #EE151E",
"$. c #F1151E",
"%. c #FB151F",
"&. c #844315",
"*. c #8E4615",
"=. c #8D4919",
"-. c #944B13",
";. c #9B4E14",
":. c #954E1B",
">. c #9C5214",
",. c #9E530F",
"<. c #A35412",
"1. c #AB5712",
"2. c #AB5812",
"3. c #B45C11",
"4. c #B85E10",
"5. c #8E6D0F",
"6. c #9C7B0F",
"7. c #94780F",
"8. c #816511",
"9. c #856A13",
"0. c #8B6D11",
"q. c #8B6E1D",
"w. c #8E7013",
"e. c #8E7219",
"r. c #937312",
"t. c #957912",
"y. c #9C7B12",
"u. c #987712",
"i. c #8F700F",
"p. c #BE620F",
"a. c #AD7010",
"s. c #864A25",
"d. c #824A30",
"f. c #876B22",
"g. c #C3650E",
"h. c #CD680D",
"j. c #C8660E",
"k. c #D46C0C",
"l. c #DA6F0B",
"z. c #DD720A",
"x. c #D6700B",
"c. c #C16210",
"v. c #EC7907",
"b. c #E27409",
"n. c #E87808",
"m. c #F57E05",
"M. c #F97F05",
"N. c #9C830F",
"B. c #A4830E",
"V. c #AB8A0C",
"C. c #A9870E",
"Z. c #B38D0C",
"A. c #B5920C",
"S. c #BD950B",
"D. c #BB990A",
"F. c #A48111",
"G. c #AE900A",
"H. c #C49C09",
"J. c #C99F09",
"K. c #C49C07",
"L. c #FE8304",
"P. c #F78104",
"I. c #CCA307",
"U. c #CAA307",
"Y. c #D4AA05",
"T. c #DAAE06",
"R. c #D2A606",
"E. c #DCB303",
"W. c #D3B001",
"Q. c #E2B503",
"!. c #E8B702",
"~. c #E5B902",
"^. c #EBBC02",
"/. c #EFC101",
"(. c #F4C301",
"). c #F9C700",
"_. c #FECC00",
"`. c #83807E",
"'. c #452783",
"]. c #472886",
"[. c #482989",
"{. c #898787",
"}. c #918F8F",
"|. c #959393",
" X c #9C9B9B",
".X c #A09E9E",
"XX c #A7A5A6",
"oX c #ACABAB",
"OX c #A8A7A7",
"+X c #B0AFAF",
"@X c #B4B3B3",
"#X c #B9B6B7",
"$X c #BCBBBB",
"%X c #B1AFB0",
"&X c #C6C5C5",
"*X c #CCCBCB",
"=X c #D6D5D5",
/* pixels */
"        . X . . . . . . . . . . . . . . . . . . . . . . . . . . . . . . . . . . . X . . . . . . . . . . . . . . . . . . . . . . . . . . . . . . . . . . . . . . X . . . . . X . . . . . . . . . . . . . . . . . . . . . . . . . . . . . X . . . . . . . .             ",
"    . ; }  .o.o.o.o.o.o.o.o.o.o.o.o.o.o.o.o.o.o.o.o.o.o.o.o.o.o.o.o.o.o.o.o.o.o.X.o.o.o.o.o.o.o.o.o.o.o.o.o.o.o.o.o.o.o.o.o.o.o.o.o.o.o.o.o.o.o.o.o.o.o.o.o.o.o.o.o.o.o.o.o.o.X.o.o.o.o.o.X.o.o.o.o.o.o.o.o.o.o.o.o.o.o.o.o.o.o.o.o.o.o.o.X.o.o.o.X.o.o.| ; X         ",
"  . , #.%.%.%.%.%.%.%.%.%.%.%.%.%.%.%.%.%.%.%.%.%.%.%.%.%.%.%.%.%.%.%.%.%.%.%.%.%.%.%.%.%.%.%.%.%.%.%.%.%.%.%.%.%.%.%.%.%.%.%.%.%.%.%.%.%.%.%.%.%.%.%.%.%.%.%.%.%.%.%.%.%.%.%.%.%.%.%.%.%.%.%.%.%.%.%.%.%.%.%.%.%.%.%.%.%.%.%.%.%.%.%.%.%.%.%.%.%.%.%.%.%.$.{ X       ",
"  ; #.$.| 7 5 5 5 5 5 5 5 5 5 5 5 5 5 5 5 5 5 5 5 5 5 5 5 5 5 5 5 5 5 5 5 5 5 5 5 5 5 5 5 5 5 5 5 5 5 5 5 5 5 5 5 5 5 5 5 5 5 5 5 5 5 5 5 5 5 5 5 5 5 5 5 5 5 5 5 5 5 5 5 5 5 5 5 5 5 5 5 5 5 5 5 5 5 5 5 5 5 5 5 5 5 5 5 5 5 5 5 5 5 5 5 5 5 5 5 5 5 7 } $.$.>       ",
"X | %.} g.M.L.L.L.L.L.L.L.L.L.L.L.L.M.L.L.L.L.L.L.L.L.L.L.L.L.L.L.L.L.L.L.L.L.L.L.L.L.L.L.M.L.L.L.L.L.L.L.L.L.L.L.L.L.L.L.L.L.L.L.L.L.L.L.L.L.L.L.L.L.L.L.L.L.L.L.L.L.M.L.L.L.P.M.L.L.L.L.L.L.L.L.L.L.L.L.L.L.L.L.L.L.L.L.L.L.L.L.L.L.L.L.L.L.L.L.L.L.M.j.{ %.X..     ",
". X.$.5 M.L.L.L.L.L.L.L.L.L.L.L.L.L.L.L.L.L.L.L.L.L.L.v.m.L.L.L.L.L.L.L.L.L.L.L.L.L.L.L.L.L.L.P.L.L.L.L.L.L.L.L.L.L.L.L.L.L.L.L.L.L.L.L.P.P.L.L.L.L.L.L.L.L.L.L.L.L.L.L.m.4.L.L.L.L.L.L.L.L.n.L.L.L.L.L.L.L.L.M.b.L.L.L.L.L.L.L.P.L.L.P.L.L.L.M.L.L.L.L.L...$.O..     ",
". X.$.&.L.L.M.;.-.-.-.-.-.-.-.-.,.g.m.L.L.L.L.L.L.L.L.-.,.z.m.n.L.L.L.L.L.L.L.L.L.L.n.g.<.>.>.p.n.L.L.L.L.L.L.L.L.L.L.L.L.L.L.L.L.L.L.L.P.4 p.P.<.P.L.L.L.L.L.L.L.L.L.m.d &.k.m.m.L.L.L.L.M.4 1.v.v.v.L.L.L.L.P.< 4.L.4.P.L.L.-.! Q Q Q Q Q s m.L.L.L.L.L.;.@.O.X     ",
". X.$.&.L.L.m.` &X#X#X#X#X#X#X#X+X{.v p.L.L.L.L.L.L.z.' b 5 4...L.L.L.L.L.L.L.L.b.=.] ) r a f f 2 &.k.L.L.L.L.L.L.L.L.L.L.L.L.L.L.L.L.L.P.E r ;.< -.M.L.L.L.L.L.L.L.m.s.XX@ >.4 b.M.L.L.L.h.{.= -.>.>.L.L.L.L.P.M E 2.4 <.L.L.d.=X*X&X&X&X&X) j.v.L.L.L.L.;.@.O..     ",
". X.$...L.L.P.' OX9.t.t.t.t.t.t.t.t.l + 1.L.L.L.L.L.s.@Xq.B.* A k.M.L.L.L.L.L.g.[ OX` V.~.)._._.).Q.B.d z.L.L.L.L.L.L.L.L.L.L.L.L.L.L.L.M._ }.w.% P =.L.L.L.L.L.L.M.:.#X|.9.$ & b.L.L.L.M.! #XN.0.D J b.L.L.L.P.^  Xj o H 3.L.d.@Xq.C.Z.C.Z.Z.8.h.L.L.L.L.>.@.O.X     ",
".  .$.*.L.L.m.' XXE._._._._._._._._._.~.0.1.L.L.L.x.}.{.E.^.r ].u M.L.L.L.L.p.}.#XV ^._._._._._._._._.~.g k.L.L.L.L.L.L.L.L.L.L.L.L.L.L.M._ }.!.C.L I ;.P.L.L.L.P.:.@X|.Z.E.L H b.L.L.L.j.XX` ^.E.J R &.L.L.L.P.^  XE.r.U A g.d.@XJ._._._._._.H.< < v.L.L.;.@.O..     ",
". X.$...L.L.m.' XXE._._._._._._._._._._.).6.g.L.L.s.#Xe._._.Z.T P j.L.L.L.z.] &Xq.(._._._._._._._._._._./.g z.L.L.L.L.L.L.L.L.L.L.L.L.L.m._ }.^._.6.P P >.L.L.L.:.oX.XC._.E.U H b.L.L.P.! @XV._._.r.'.J z.L.L.P.^  XE.(.l U F t @XJ._._._._._.S.T G v.L.L.;.@.@.X     ",
". X.$.*.L.L.m.' XXE._._._._._._._._._._._.(.a z.k.|.`.E._._.(.z [.0 m.L.L.s.*X/ /._._._._._._._._._.R.l /.U.4 P.L.L.P.L.P.L.L.P.L.L.L.L.M._ |.!._._.y.P P >.P.<.XX.XF._._.T.P L b.L.L.p.oX( ^._._.!.Y ].p L.L.L.^  X~._.(.m U D }.J._._._._._.S.R G v.L.L.;.@.O..     ",
". X.$...L.L.m.' XXE._._._._._.).^._._._._._.y.4 N @Xy._._._._.H.I U 3.L.z.}.+XH._._._._._._._._.E.9.6.Y.u.* <.L.k.0 M M M M M M 6 P.L.L.M._ }.^._._.).r.I P 3 .XOXF.)._._.E.P H b.L.P.W +XV._._._._.F.T L k.L.P.^  XE._._./.x T % J.)._._._._.S.R J v.L.L.;.@.O.X     ",
". X.$.*.L.L.m.' XXE._._._._._.U.@ (._._.).^.V.$ |.] ~._._._._.).m [.q v.a.&X( )._._._._._._.^.6.9.R.V.Y T L 5 M.h.@X=X*X*X*X*X*X~ x.m.L.P._ }.^._._._.).e.I P ` y.)._._._.T.P H b.L.4.oX( (._._._._.^.r [.u P.P.^  X~._._._.~.t L J._._._._._.H.R A v.L.L.;.@.@..     ",
". X.#...L.L.m.' XXE._._._._._.).Y._.H.^.Q.F.B.C }.y._._._._._._.R.A T <.=.*Xq._._._._._._._.A.U.D.t I I y j.M.L.h.oXv C.V.V.V.V.V.l h.L.m._ |.^._._._._.(.q.A r._._._._._.E.P H b.m.~ +XA._._._._._._.V.U L c.m.^  XE._._._._.E.9 J._._._._._.S.R A v.L.L.;.@.O.X     ",
".  .$...L.L.m.' XXE._._._._._.).~.H.8.).6.I.h A 9 ^._._._._._._.).8.'.Y 0 *XV._._._._._._.).I.m P T F 1.m.L.L.L.h..XV _._._._._._.D.3 -.P.` }.^._._._._._.).Z.)._._._._._.E.P H b.3.oX^ (._._._._._._.(.t [.0 m.^  XE._._._._._.I.J._._._._._.H.R G v.L.L.;.@.O..     ",
". X.$.&.L.L.P.' OXE._._._._._.T.i.A.~.V.w.Y.J H V._._._.6.0.(._._.E.J R = $XG._._._._._._.~.l D G ] ~ 3.v.L.L.L.b.;.f _._._._._._.D.I i L.` }.^._._._._._._._._._._._._._.E.I H k.( OXD._._.(.8.r.)._._.D.I P 3.(  XE._._._._._.).)._._._._._.S.R A v.L.L.;.@.O.X     ",
". X.$.*.L.L.m.' OXE._._._.^.w.w.w.l k D.E.z '.- /._._./.+ . E._._._.r.'.G +XN._._._._._._._.(.E.t.] $X#X[ :.m.L.L.m.s Z.A.A.A.D.A.9.U i P.` }.^._._._._._._._._._._._._._.~.I H d @X/ (._._.E.. + ^.)._.).x [.w (  X~._._._._._._._._._._._._.H.R A v.L.L.;.@.@..     ",
". X.$.&.L.L.m.' OXE._._._.~.u.~.W.E.W.C.F ].P V._._._._.J.S.^.i._._.~.F '.) B _._._._._._._.H.j U.E.C.( oXM P.L.L.L.k.>.H U T U U U '.i M.` }.^._._._._._._._._._._._._._.E.P H ) XXH._._._._.H.I.Q.6._._.J.L T ~  XE._._._._._._._._._._._._.S.R G v.L.L.;.@.O.X     ",
". X.$.&.L.L.m.' XXE._._._.E.y.S.D J L T [.P 1 (._._._._._.U.j Y._.^.R.B.U H + ~._._._._._._._.^.Z.f A.Q.H.s 2.v.L.L.L.h.d n n n n n n -.m.` |.^._._._._._._._._._._._._.D.E.P H +X/ )._._._._.).S.f !._.E.Y.m ].K ] ~._._._._._._._._._._.(.J.S.R G v.L.L.;.@.O..     ",
". X.$...L.L.P.' XXE._._._.E.6.S.R H J D Y ` A._._._._._._.J.!._._.(.f ~.r ].$ 7._._._._._._._._._.(.H.f S.(.s x.L.L.L.L.L.L.L.L.L.L.L.L.M._ }.^._._._._._._._._._._._.).l T.P L [ H._._._._._.).I.(._._.^.l I.H U X E._._._._._._._._._._./.i.H.R J v.L.L.;.@.O.X     ",
".  .$.*.L.L.P.] XXE._._._.~.6.S.R q n.<.+X/ (._._._._._._._._._._._.S.A.A.I L + R._._._._._._._._._.E.j Q.S.Z < m.L.L.L.L.L.L.L.L.L.L.L.m._ }.^._._._._._._._._._._._.).g W.P H j )._._._._._._._._._._._.r.E.l [.Z E._._._._._._._._._._./.0.S.R A v.L.L.;.@.O..     ",
". X.$...L.L.P.( {.E./.N.C.y.6.S.R q v.t }.D._._._._._._._._._.^.N.N.t.2 ~.z [.% 9 I._._._._.).~.R.y.8.Q.J.F U 1.L.L.L.L.L.L.L.L.L.L.L.L.m.W [ ^._._._._._._._._.~.N.N.N.a T.P G I._._._._._._._._._.E.r.u.g w.W.J H E._._._._._._._.Y.N.N.t.0.S.R A v.L.M.;.@.O.X     ",
". X.$.*.L.L.P.j.d E./.Y.Y.Y.!.A.'.q b.3.a /.).).)._.).)._.).).(.Q.E.Q.Q.(.D.P U E + V.(._._.E.y.V.T.^.F.J T u m.L.L.L.L.L.L.L.L.L.L.L.L.M.j.4 !.).)._.).)._.).).(.Q.Q.~.~.E.G m ).)._.).)._.).).).).(.^.~.~.^._.e.& E._.)._.).)._.)./.Q.Q.Q.~.S.R G v.L.L.;.#.O..     ",
". X.$...L.L.L.L.4.s x z c c z e R q L.c.2 s x c c c c c c c c c c c c c c c & [.% O . 1 y.J.T.T.H.r.r U U u v.L.L.L.L.L.L.L.L.L.L.L.L.L.L.L.<.f s c c c c c c c c c c c c t % 9 a x z c c c c c c c z c c z c c e % c a c c c c c z c z c z c e '.A v.L.L.;.@.O..     ",
". X.$...L.L.L.L.L.b.& I I I U I I w M.P.L.4 H I U I I I I I I U I I I I I I I U S ;.j.-.O % S H P T U F ;.m.L.L.L.L.L.L.L.L.L.L.L.L.L.L.L.L.L.P.0 I I I I I I U I I I U I I I Z X L I I I I I U I I U I I U U I I I I % L I I U I U I U I U I I I C v.L.L.;.@.@.X     ",
". X.$...L.L.L.L.L.P.h.h.k.h.h.h.k.k.L.L.P.h.h.h.h.h.h.h.h.h.h.h.h.h.h.h.j.h.h.h.h.k.L.L.v.p.-.p p :.p.v.L.L.L.L.L.L.L.L.L.L.L.L.L.L.L.L.L.L.L.L.k.h.j.h.h.h.h.h.h.h.j.h.h.h.h.h.h.h.h.h.h.h.h.h.h.h.h.h.h.h.j.h.h.h.h.h.h.h.h.h.h.h.h.h.h.h.h.h.h.h.M.L.L.&.@.O..     ",
". | %.{ k.L.L.L.L.L.L.L.L.L.L.L.L.L.L.L.L.L.L.L.L.L.L.L.L.L.L.L.L.L.L.L.L.L.L.L.L.L.L.L.L.L.L.L.L.L.L.L.L.L.L.L.L.L.L.L.L.L.L.L.L.L.L.L.L.L.L.L.L.L.L.L.L.L.L.L.L.L.L.L.L.L.L.L.L.L.L.L.L.L.L.L.L.L.L.L.L.L.L.L.L.L.L.L.P.L.L.L.L.L.L.L.L.L.L.L.L.L.L.L.z.{ %.X..     ",
"  : $.#.{ ..*.*.*.*.*.*.*.*.*.*.*.*.*.*.*.*.*.*.*.-.=.*.*.*.*.*.*.*.=.-.*.*.*.*.*.*.*.*.=.*.-.*.*.*.*.*.*.*.*.-.*.*.*.*.*.*.*.*.-.=.*.*.*.*.*.*.*.*.*.*.*.*.=.*.*.*.*.*.*.-.*.*.*.*.*.-.*.*.*.=.-.*.*.*.*.*.-.*.*.*.*.=.*.-.*.=.*.*.*.*.*.*.*.*.*.*.=.&.{ @.%.,       ",
"  . { %.%.$.$.$.$.$.$.$.$.$.$.$.$.$.$.$.$.$.$.$.#.$.$.$.#.$.$.$.$.#.$.$.$.$.$.$.$.$.$.$.#.$.$.#.$.$.$.#.$.$.$.$.$.$.$.$.$.$.$.$.$.$.$.$.$.$.$.$.$.$.$.$.$.$.$.$.$.$.$.#.$.#.$.#.$.$.$.$.$.$.$.#.#.$.$.$.$.$.$.#.$.$.$.$.#.$.$.#.$.$.$.$.$.$.$.$.$.$.$.$.%.%.} .       ",
"    . :  .+.O.O.O.O.O.O.O.O.O.O.O.O.O.O.+.O.O.O.O.O.O.+.O.O.O.O.O.O.O.O.O.O.O.O.O.O.O.O.O.O.O.O.O.O.O.O.+.O.O.O.O.O.O.O.O.O.O.O.O.O.+.O.O.O.O.O.O.O.O.O.O.O.O.O.O.O.O.O.O.O.O.O.O.O.O.O.O.O.O.O.O.O.O.+.O.O.O.O.O.+.O.O.O.O.O.O.O.O.O.O.O.O.O.O.O.O.+.+. ., .         ",
"        . . . . . . . . . . . . . . . . . . . . . . . . . . . . . . . . . . . . . . . . . . . . . . . . . . . . . . . . . . . . . . . . . . . . . . . . . . . . . . . . . . . . . . . . . . . . . . . . . . . . . . . . . . . . . . . . . . . . . . . . .             "
};
